<svg width="100" height="101" viewBox="0 0 100 101" fill="none" xmlns="http://www.w3.org/2000/svg">
    <rect y="0.197266" width="100" height="100" rx="50" fill="#DEFAFC"/>
    <path d="M29.0773 75.1973C28.0951 75.1973 27.2544 74.8476 26.555 74.1482C25.8556 73.4488 25.5059 72.608 25.5059 71.6258C25.5059 70.6437 25.8556 69.8029 26.555 69.1035C27.2544 68.4041 28.0951 68.0544 29.0773 68.0544C30.0594 68.0544 30.9002 68.4041 31.5996 69.1035C32.299 69.8029 32.6487 70.6437 32.6487 71.6258C32.6487 72.608 32.299 73.4488 31.5996 74.1482C30.9002 74.8476 30.0594 75.1973 29.0773 75.1973ZM29.0773 53.7687C28.0951 53.7687 27.2544 53.419 26.555 52.7196C25.8556 52.0202 25.5059 51.1794 25.5059 50.1973C25.5059 49.2151 25.8556 48.3743 26.555 47.6749C27.2544 46.9755 28.0951 46.6258 29.0773 46.6258C30.0594 46.6258 30.9002 46.9755 31.5996 47.6749C32.299 48.3743 32.6487 49.2151 32.6487 50.1973C32.6487 51.1794 32.299 52.0202 31.5996 52.7196C30.9002 53.419 30.0594 53.7687 29.0773 53.7687ZM29.0773 32.3401C28.0951 32.3401 27.2544 31.9904 26.555 31.291C25.8556 30.5916 25.5059 29.7508 25.5059 28.7687C25.5059 27.7866 25.8556 26.9458 26.555 26.2464C27.2544 25.547 28.0951 25.1973 29.0773 25.1973C30.0594 25.1973 30.9002 25.547 31.5996 26.2464C32.299 26.9458 32.6487 27.7866 32.6487 28.7687C32.6487 29.7508 32.299 30.5916 31.5996 31.291C30.9002 31.9904 30.0594 32.3401 29.0773 32.3401ZM50.5059 32.3401C49.5237 32.3401 48.6829 31.9904 47.9835 31.291C47.2841 30.5916 46.9344 29.7508 46.9344 28.7687C46.9344 27.7866 47.2841 26.9458 47.9835 26.2464C48.6829 25.547 49.5237 25.1973 50.5059 25.1973C51.488 25.1973 52.3288 25.547 53.0282 26.2464C53.7276 26.9458 54.0773 27.7866 54.0773 28.7687C54.0773 29.7508 53.7276 30.5916 53.0282 31.291C52.3288 31.9904 51.488 32.3401 50.5059 32.3401ZM71.9344 32.3401C70.9523 32.3401 70.1115 31.9904 69.4121 31.291C68.7127 30.5916 68.363 29.7508 68.363 28.7687C68.363 27.7866 68.7127 26.9458 69.4121 26.2464C70.1115 25.547 70.9523 25.1973 71.9344 25.1973C72.9166 25.1973 73.7573 25.547 74.4567 26.2464C75.1562 26.9458 75.5059 27.7866 75.5059 28.7687C75.5059 29.7508 75.1562 30.5916 74.4567 31.291C73.7573 31.9904 72.9166 32.3401 71.9344 32.3401ZM50.5059 53.7687C49.5237 53.7687 48.6829 53.419 47.9835 52.7196C47.2841 52.0202 46.9344 51.1794 46.9344 50.1973C46.9344 49.2151 47.2841 48.3743 47.9835 47.6749C48.6829 46.9755 49.5237 46.6258 50.5059 46.6258C51.488 46.6258 52.3288 46.9755 53.0282 47.6749C53.7276 48.3743 54.0773 49.2151 54.0773 50.1973C54.0773 51.1794 53.7276 52.0202 53.0282 52.7196C52.3288 53.419 51.488 53.7687 50.5059 53.7687ZM55.1487 75.1973V68.233L73.988 49.483C74.2856 49.1854 74.58 48.9919 74.871 48.9026C75.1621 48.8133 75.4532 48.7687 75.7442 48.7687C76.0615 48.7687 76.3785 48.8282 76.6951 48.9473C77.0124 49.0663 77.3005 49.2449 77.5594 49.483L80.863 52.8758C81.1011 53.1735 81.2797 53.4711 81.3987 53.7687C81.5178 54.0663 81.5773 54.3639 81.5773 54.6616C81.5773 54.9592 81.5178 55.2568 81.3987 55.5544C81.2797 55.852 81.1011 56.1496 80.863 56.4473L62.113 75.1973H55.1487ZM57.6487 72.6973H61.0416L73.8987 59.8401L72.2023 58.1437L70.5951 56.358L57.6487 69.3044V72.6973ZM72.2023 58.1437L70.5951 56.358L73.8987 59.8401L72.2023 58.1437Z" fill="#4160FF"/>
</svg>
