<svg width="100" height="101" viewBox="0 0 100 101" fill="none" xmlns="http://www.w3.org/2000/svg">
    <rect y="0.197266" width="100" height="100" rx="50" fill="#DEFAFC"/>
    <path d="M70.9521 75C69.2056 75 67.6712 74.4386 66.3488 73.3159C65.0264 72.1931 64.2405 70.7585 63.991 69.012H47C44.2056 69.012 41.8353 68.0389 39.8892 66.0928C37.9431 64.1467 36.9701 61.7764 36.9701 58.982C36.9701 56.1876 37.9431 53.8174 39.8892 51.8713C41.8353 49.9251 44.2056 48.9521 47 48.9521H52.988C55.1697 48.9521 57.0374 48.1739 58.5913 46.6175C60.1452 45.0606 60.9222 43.1894 60.9222 41.0037C60.9222 38.8176 60.1452 36.9511 58.5913 35.4042C57.0374 33.8573 55.1697 33.0838 52.988 33.0838H35.997C35.7475 34.8303 34.9616 36.265 33.6392 37.3877C32.3169 38.5105 30.7824 39.0719 29.0359 39.0719C27.0813 39.0719 25.4202 38.3887 24.0524 37.0225C22.6841 35.6562 22 33.997 22 32.0449C22 30.0928 22.6841 28.4306 24.0524 27.0584C25.4202 25.6861 27.0813 25 29.0359 25C30.7824 25 32.3169 25.5614 33.6392 26.6841C34.9616 27.8069 35.7475 29.2415 35.997 30.988H52.988C55.7824 30.988 58.1527 31.9611 60.0988 33.9072C62.0449 35.8533 63.018 38.2236 63.018 41.018C63.018 43.8124 62.0449 46.1826 60.0988 48.1287C58.1527 50.0749 55.7824 51.0479 52.988 51.0479H47C44.8179 51.0479 42.9501 51.8261 41.3967 53.3825C39.8428 54.9394 39.0659 56.8106 39.0659 58.9963C39.0659 61.1824 39.8428 63.0489 41.3967 64.5958C42.9501 66.1427 44.8179 66.9162 47 66.9162H63.991C64.2405 65.1697 65.0264 63.735 66.3488 62.6123C67.6712 61.4895 69.2056 60.9281 70.9521 60.9281C72.9067 60.9281 74.5679 61.6113 75.9356 62.9775C77.3039 64.3438 77.988 66.003 77.988 67.9551C77.988 69.9072 77.3039 71.5694 75.9356 72.9416C74.5679 74.3139 72.9067 75 70.9521 75ZM29.0359 36.976C30.3832 36.976 31.5434 36.4895 32.5165 35.5165C33.4895 34.5434 33.976 33.3832 33.976 32.0359C33.976 30.6886 33.4895 29.5284 32.5165 28.5554C31.5434 27.5823 30.3832 27.0958 29.0359 27.0958C27.6886 27.0958 26.5284 27.5823 25.5554 28.5554C24.5823 29.5284 24.0958 30.6886 24.0958 32.0359C24.0958 33.3832 24.5823 34.5434 25.5554 35.5165C26.5284 36.4895 27.6886 36.976 29.0359 36.976Z" fill="#4160FF"/>
</svg>
