<svg width="101" height="101" viewBox="0 0 101 101" fill="none" xmlns="http://www.w3.org/2000/svg">
    <rect x="0.5" y="0.197266" width="100" height="100" rx="50" fill="#DEFAFC"/>
    <path d="M53.6056 53.6995H55.7795V44.3827H65.0963V42.2088H55.7795V32.892H53.6056V42.2088H44.2888V44.3827H53.6056V53.6995ZM38.5435 64.1032C37.1977 64.1032 36.0849 63.6632 35.205 62.7833C34.3251 61.9034 33.8851 60.7906 33.8851 59.4448V27.1467C33.8851 25.8009 34.3251 24.6881 35.205 23.8082C36.0849 22.9282 37.1977 22.4883 38.5435 22.4883H70.8416C72.1874 22.4883 73.3002 22.9282 74.1801 23.8082C75.06 24.6881 75.5 25.8009 75.5 27.1467V59.4448C75.5 60.7906 75.06 61.9034 74.1801 62.7833C73.3002 63.6632 72.1874 64.1032 70.8416 64.1032H38.5435ZM38.5435 61.9293H70.8416C71.4627 61.9293 72.0321 61.6705 72.5497 61.1529C73.0673 60.6353 73.3261 60.0659 73.3261 59.4448V27.1467C73.3261 26.5255 73.0673 25.9562 72.5497 25.4386C72.0321 24.921 71.4627 24.6622 70.8416 24.6622H38.5435C37.9224 24.6622 37.353 24.921 36.8354 25.4386C36.3178 25.9562 36.059 26.5255 36.059 27.1467V59.4448C36.059 60.0659 36.3178 60.6353 36.8354 61.1529C37.353 61.6705 37.9224 61.9293 38.5435 61.9293ZM30.1584 72.4883C28.8126 72.4883 27.6998 72.0483 26.8199 71.1684C25.94 70.2885 25.5 69.1757 25.5 67.8299V33.3578H27.6739V67.8299C27.6739 68.451 27.9327 69.0204 28.4503 69.538C28.9679 70.0556 29.5373 70.3144 30.1584 70.3144H64.6304V72.4883H30.1584Z" fill="#4160FF"/>
</svg>
