<svg width="410" height="364" viewBox="0 0 410 364" fill="none" xmlns="http://www.w3.org/2000/svg">
    <path opacity="0.3" d="M77.6017 226.659C74.9781 226.659 72.3551 226.046 70.3107 224.82L7.60957 187.207C5.21177 185.768 3.83691 183.612 3.83691 181.291C3.83691 178.97 5.21177 176.814 7.60957 175.375L103.731 117.714C104.682 117.143 104.934 116.621 104.934 116.423C104.934 116.227 104.682 115.705 103.731 115.134L78.7583 100.153C77.5291 99.4154 77.108 97.7819 77.8175 96.5052C78.5275 95.2276 80.0991 94.7906 81.3289 95.5273L106.301 110.509C108.699 111.947 110.074 114.102 110.074 116.423C110.074 118.745 108.699 120.902 106.301 122.34L10.18 180.001C9.22878 180.571 8.97746 181.095 8.97746 181.291C8.97746 181.488 9.22878 182.011 10.18 182.581L72.8808 220.195C75.3952 221.703 79.8073 221.703 82.3227 220.195L106.941 205.426C108.172 204.69 109.742 205.127 110.452 206.404C111.162 207.681 110.741 209.315 109.511 210.052L84.8926 224.82C82.8484 226.046 80.2248 226.659 77.6017 226.659Z" fill="#87DBFF"/>
    <path d="M77.6019 224.522C75.3338 224.522 73.0661 224.004 71.3393 222.968L8.6386 185.355C6.86917 184.294 5.89432 182.851 5.89432 181.291C5.89432 179.731 6.86917 178.288 8.6386 177.227L104.76 119.566C106.199 118.702 106.992 117.587 106.992 116.423C106.992 115.261 106.199 114.146 104.76 113.282L79.7873 98.3009L80.3 97.379L105.273 112.36C107.042 113.422 108.017 114.865 108.017 116.423C108.017 117.983 107.042 119.426 105.273 120.487L9.1513 178.149C7.71235 179.012 6.91972 180.129 6.91972 181.291C6.91972 182.453 7.71235 183.57 9.1513 184.433L71.852 222.046C75.0224 223.946 80.1809 223.946 83.3512 222.046L107.97 207.278L108.483 208.2L83.8639 222.968C82.1375 224.004 79.8694 224.522 77.6019 224.522Z" fill="#87DBFF"/>
    <path d="M96.292 214.898C95.6533 213.749 96.026 212.282 97.1246 211.623C98.223 210.964 99.6314 211.362 100.27 212.512C100.909 213.661 100.536 215.127 99.4377 215.786C98.3391 216.445 96.9308 216.047 96.292 214.898Z" fill="#87DBFF"/>
    <path d="M84.3579 222.057C83.7191 220.907 84.0918 219.441 85.1903 218.782C86.2889 218.123 87.6972 218.521 88.336 219.67C88.9747 220.82 88.602 222.286 87.5035 222.945C86.405 223.604 84.9966 223.206 84.3579 222.057Z" fill="#87DBFF"/>
    <path d="M71.2238 222.284C71.5276 221.695 72.0898 221.355 72.5893 221.129C73.0864 220.912 73.5688 220.857 74.0461 221.017C74.9577 221.344 75.6812 222.522 75.5312 223.84C75.3861 225.155 74.0494 226.087 72.554 225.567C71.8245 225.319 71.2666 224.745 71.0335 224.119C70.7931 223.499 70.9245 222.865 71.2238 222.284Z" fill="#87DBFF"/>
    <path d="M59.2902 215.125C59.9289 213.976 61.3373 213.578 62.4358 214.237C63.5344 214.896 63.907 216.362 63.2683 217.512C62.6295 218.661 61.2212 219.059 60.1228 218.4C59.0242 217.741 58.6515 216.275 59.2902 215.125Z" fill="#87DBFF"/>
    <path d="M47.3565 207.966C47.9953 206.817 49.4036 206.419 50.502 207.078C51.6006 207.737 51.9733 209.203 51.3346 210.353C50.6958 211.502 49.2875 211.9 48.189 211.241C47.0905 210.582 46.7178 209.116 47.3565 207.966Z" fill="#87DBFF"/>
    <path d="M35.4223 200.807C36.0611 199.658 37.4694 199.26 38.568 199.919C39.6665 200.578 40.0393 202.044 39.4004 203.194C38.7618 204.343 37.3534 204.741 36.2549 204.082C35.1563 203.423 34.7836 201.957 35.4223 200.807Z" fill="#87DBFF"/>
    <path d="M23.4881 193.648C24.1269 192.499 25.5352 192.101 26.6338 192.76C27.7322 193.419 28.105 194.885 27.4662 196.035C26.8275 197.184 25.4192 197.582 24.3206 196.923C23.2222 196.264 22.8494 194.798 23.4881 193.648Z" fill="#87DBFF"/>
    <path d="M11.5544 186.49C12.1932 185.34 13.6015 184.942 14.7001 185.601C15.7986 186.26 16.1714 187.726 15.5325 188.876C14.8938 190.025 13.4854 190.423 12.387 189.764C11.2884 189.105 10.9157 187.639 11.5544 186.49Z" fill="#87DBFF"/>
    <path d="M10.4317 176.767C10.751 177.341 10.8175 177.995 10.6669 178.588C10.5915 178.884 10.4619 179.165 10.2825 179.413C10.2003 179.534 10.0737 179.66 9.9934 179.751C9.92203 179.839 9.84111 179.913 9.74811 179.973C9.39823 180.223 8.98949 180.238 8.5061 180.177C8.00712 180.098 7.42405 179.991 6.85883 179.666C6.30838 179.351 5.93317 178.745 5.98342 178.013C6.01203 177.271 6.46188 176.476 7.16144 175.988C7.33566 175.871 7.51572 175.772 7.6963 175.692C7.8694 175.618 7.99666 175.601 8.15119 175.577C8.44765 175.54 8.74667 175.564 9.03122 175.644C9.60055 175.805 10.1122 176.192 10.4317 176.767Z" fill="#87DBFF"/>
    <path d="M22.366 169.607C23.0047 170.757 22.6321 172.223 21.5335 172.882C20.435 173.541 19.0266 173.143 18.3879 171.994C17.7491 170.844 18.1219 169.378 19.2204 168.719C20.3189 168.06 21.7272 168.458 22.366 169.607Z" fill="#87DBFF"/>
    <path d="M34.2997 162.449C34.9384 163.598 34.5657 165.064 33.4671 165.723C32.3687 166.382 30.9603 165.985 30.3216 164.835C29.6829 163.685 30.0555 162.219 31.1541 161.56C32.2526 160.901 33.6609 161.299 34.2997 162.449Z" fill="#87DBFF"/>
    <path d="M46.2334 155.29C46.8721 156.439 46.4995 157.905 45.4009 158.564C44.3024 159.223 42.894 158.826 42.2553 157.676C41.6165 156.526 41.9893 155.06 43.0878 154.402C44.1863 153.742 45.5946 154.14 46.2334 155.29Z" fill="#87DBFF"/>
    <path d="M58.1671 148.131C58.8058 149.28 58.4331 150.746 57.3346 151.405C56.2361 152.064 54.8278 151.667 54.189 150.517C53.5503 149.368 53.9229 147.902 55.0215 147.243C56.12 146.584 57.5284 146.981 58.1671 148.131Z" fill="#87DBFF"/>
    <path d="M70.1008 140.972C70.7395 142.121 70.3668 143.588 69.2683 144.247C68.1698 144.905 66.7614 144.508 66.1227 143.358C65.4839 142.209 65.8567 140.743 66.9552 140.084C68.0537 139.425 69.462 139.822 70.1008 140.972Z" fill="#87DBFF"/>
    <path d="M82.035 133.813C82.6737 134.963 82.301 136.429 81.2024 137.088C80.104 137.747 78.6957 137.349 78.0569 136.199C77.4182 135.05 77.7908 133.584 78.8894 132.925C79.9879 132.266 81.3962 132.664 82.035 133.813Z" fill="#87DBFF"/>
    <path d="M93.9691 126.654C94.6079 127.804 94.2352 129.27 93.1367 129.929C92.0381 130.588 90.6298 130.19 89.9911 129.041C89.3523 127.891 89.7251 126.425 90.8235 125.766C91.9221 125.107 93.3304 125.505 93.9691 126.654Z" fill="#87DBFF"/>
    <path d="M105.86 119.427C106.259 119.936 106.405 120.62 106.195 121.261C106.145 121.423 106.076 121.586 105.987 121.745C105.919 121.887 105.844 122.017 105.754 122.142C105.574 122.39 105.345 122.605 105.07 122.77C103.972 123.429 102.564 123.031 101.925 121.881C101.286 120.732 101.659 119.266 102.757 118.607C103.942 117.917 105.001 118.463 105.86 119.427Z" fill="#87DBFF"/>
    <path d="M99.9336 109.772C100.572 108.622 101.981 108.225 103.079 108.884C104.178 109.543 104.55 111.009 103.912 112.158C103.273 113.308 101.865 113.706 100.766 113.047C99.6676 112.388 99.2949 110.922 99.9336 109.772Z" fill="#87DBFF"/>
    <path d="M87.9999 102.613C88.6387 101.463 90.047 101.066 91.1456 101.725C92.244 102.384 92.6168 103.85 91.978 104.999C91.3393 106.149 89.9309 106.546 88.8324 105.888C87.7338 105.228 87.3612 103.762 87.9999 102.613Z" fill="#87DBFF"/>
    <path d="M158.257 327.152C155.62 327.152 153.103 326.621 151.224 325.537L59.1616 272.385C57.3154 271.318 56.2983 269.835 56.2988 268.207C56.2988 266.255 57.7602 264.291 60.3081 262.819L235.89 161.447C240.664 158.691 247.917 158.394 252.059 160.785L344.122 213.937C345.968 215.004 346.984 216.487 346.984 218.114C346.984 220.067 345.523 222.031 342.975 223.503L167.394 324.875C164.785 326.381 161.435 327.152 158.257 327.152ZM151.422 325.193C155.455 327.52 162.529 327.223 167.195 324.531L342.777 223.159C345.199 221.761 346.588 219.922 346.588 218.114C346.588 216.635 345.642 215.273 343.923 214.281L251.861 161.129C247.828 158.801 240.753 159.099 236.088 161.791L60.5063 263.163C58.0844 264.561 56.6953 266.4 56.6953 268.207C56.6953 269.687 57.6416 271.049 59.3598 272.041L151.422 325.193Z" fill="#4160FF"/>
    <path d="M346.786 193.563L333.562 195.84L251.96 148.727C247.866 146.364 240.716 146.66 235.989 149.389L79.8761 239.521L56.4989 243.546L56.4971 251.835L56.5079 251.833C56.4968 253.344 57.3948 254.789 59.2607 255.866L151.323 309.018C155.417 311.382 162.567 311.085 167.294 308.356L342.876 206.984C345.421 205.515 346.732 203.641 346.773 201.854L346.786 201.852V193.563Z" fill="url(#paint0_linear_64_1491)"/>
    <path d="M151.323 300.674L59.2607 247.522C55.167 245.158 55.6804 241.03 60.4073 238.301L235.989 136.929C240.716 134.199 247.866 133.903 251.96 136.267L344.022 189.419C348.116 191.782 347.603 195.911 342.876 198.64L167.294 300.012C162.567 302.741 155.417 303.037 151.323 300.674Z" fill="#00178F"/>
    <path d="M342.876 198.64L167.294 300.012C162.567 302.741 155.417 303.037 151.323 300.674L59.2607 247.522C57.6191 246.574 56.731 245.341 56.5458 244.029C56.2921 245.731 57.1754 247.393 59.2607 248.597L151.323 301.749C155.417 304.113 162.567 303.816 167.294 301.087L342.876 199.715C345.707 198.081 347.014 195.945 346.737 193.987C346.493 195.625 345.195 197.301 342.876 198.64Z" fill="white"/>
    <path opacity="0.51" d="M151.505 298.614L62.7236 247.342C58.7624 245.055 59.2591 241.06 63.8332 238.419L236.157 138.954C240.732 136.313 247.651 136.026 251.612 138.313L340.393 189.586C344.355 191.873 343.858 195.868 339.284 198.509L166.96 297.973C162.386 300.614 155.466 300.901 151.505 298.614Z" fill="#453C9E"/>
    <path style="mix-blend-mode:lighten" opacity="0.8" d="M158.215 298.147C155.646 298.147 153.192 297.63 151.362 296.573L62.5805 245.301C60.7636 244.252 59.7632 242.787 59.7632 241.177C59.7632 239.253 61.1943 237.322 63.6899 235.882L236.014 136.417C240.66 133.733 247.722 133.448 251.755 135.776L340.537 187.049C342.353 188.098 343.354 189.562 343.353 191.173C343.353 193.097 341.922 195.027 339.427 196.468L167.102 295.933C164.565 297.397 161.307 298.147 158.215 298.147ZM151.648 296.077C155.524 298.315 162.328 298.028 166.816 295.436L339.141 195.972C341.455 194.637 342.781 192.887 342.782 191.173C342.782 189.775 341.883 188.487 340.25 187.545L251.469 136.272C247.592 134.034 240.788 134.321 236.3 136.913L63.976 236.378C61.6621 237.713 60.3354 239.463 60.3354 241.177C60.3354 242.574 61.2343 243.862 62.8667 244.805L151.648 296.077Z" fill="url(#paint1_linear_64_1491)"/>
    <g opacity="0.3">
        <path style="mix-blend-mode:lighten" opacity="0.5" d="M151.505 296.325L62.7236 245.053C58.7624 242.766 59.2591 238.771 63.8332 236.13L236.157 136.665C240.732 134.024 247.651 133.738 251.612 136.025L340.393 187.297C344.355 189.584 343.858 193.579 339.284 196.22L166.96 295.685C162.386 298.325 155.466 298.612 151.505 296.325Z" fill="url(#paint2_radial_64_1491)"/>
        <mask id="mask0_64_1491" style="mask-type:luminance" maskUnits="userSpaceOnUse" x="60" y="134" width="284" height="164">
            <path d="M151.505 296.325L62.7236 245.053C58.7624 242.766 59.2591 238.771 63.8332 236.13L236.157 136.665C240.732 134.024 247.651 133.738 251.612 136.025L340.393 187.297C344.355 189.584 343.858 193.579 339.284 196.22L166.96 295.685C162.386 298.325 155.466 298.612 151.505 296.325Z" fill="white"/>
        </mask>
        <g mask="url(#mask0_64_1491)">
            <path d="M97.2225 241.003V305.904L97.2267 305.905C97.2448 307.312 98.1 308.653 99.8399 309.658L153.767 340.793C157.648 343.033 164.428 342.752 168.91 340.165C171.424 338.714 172.679 336.845 172.614 335.089L172.615 270.171L97.2225 241.003Z" fill="#87DBFF"/>
            <path d="M153.767 275.891L99.8399 244.757C95.9584 242.516 96.4451 238.601 100.927 236.013C105.409 233.426 112.189 233.145 116.071 235.386L169.997 266.52C173.879 268.761 173.392 272.676 168.91 275.263C164.428 277.851 157.648 278.132 153.767 275.891Z" fill="#9FFFF8"/>
        </g>
    </g>
    <path opacity="0.4" d="M153.766 275.891L99.8396 244.757C95.9581 242.516 96.4449 238.601 100.927 236.013C105.409 233.426 112.189 233.145 116.07 235.386L169.997 266.52C173.879 268.761 173.392 272.676 168.91 275.263C164.428 277.851 157.648 278.132 153.766 275.891Z" fill="#24126A"/>
    <path d="M97.2227 164.245V229.146L97.2269 229.148C97.245 230.554 98.1001 231.896 99.84 232.9L153.767 264.035C157.648 266.276 164.428 265.995 168.91 263.407C171.424 261.956 172.679 260.088 172.614 258.331L172.615 193.414L97.2227 164.245Z" fill="#75CBF0"/>
    <path d="M153.766 199.134L99.8396 167.999C95.9581 165.758 96.4449 161.844 100.927 159.256C105.409 156.668 112.189 156.387 116.07 158.628L169.997 189.763C173.879 192.004 173.392 195.918 168.91 198.506C164.428 201.094 157.648 201.375 153.766 199.134Z" fill="#87DBFF"/>
    <path d="M159.15 194.96C156.576 194.96 154.489 192.874 154.489 190.299V161.463C154.489 151.629 147.294 139.165 138.776 134.248L126.401 127.103C123.132 125.216 120.18 124.756 118.303 125.839C116.425 126.924 115.348 129.71 115.348 133.484V162.32C115.348 164.894 113.262 166.98 110.688 166.98C108.114 166.98 106.028 164.894 106.028 162.32V133.484C106.028 126.184 108.732 120.603 113.642 117.768C118.553 114.933 124.739 115.382 131.062 119.032L143.436 126.176C154.861 132.772 163.81 148.272 163.81 161.463V190.299C163.81 192.874 161.724 194.96 159.15 194.96Z" fill="#008FCC"/>
    <path opacity="0.4" d="M241.146 231.723L179.664 196.227C175.477 193.809 176.002 189.587 180.837 186.795C185.672 184.004 192.986 183.701 197.173 186.118L258.655 221.615C262.842 224.032 262.317 228.255 257.482 231.046C252.647 233.838 245.333 234.141 241.146 231.723Z" fill="#24126A"/>
    <path opacity="0.4" d="M241.146 227.322L179.664 191.825C175.477 189.408 176.002 185.185 180.837 182.394C185.672 179.602 192.986 179.299 197.173 181.717L258.655 217.213C262.842 219.631 262.317 223.853 257.482 226.645C252.647 229.436 245.333 229.739 241.146 227.322Z" fill="#87DBFF"/>
    <path d="M248.238 229.146C245.542 229.146 242.967 228.602 241.046 227.494L179.565 191.997C177.678 190.908 176.639 189.393 176.639 187.729C176.639 185.733 178.133 183.726 180.738 182.222C185.62 179.403 193.037 179.099 197.272 181.545L258.754 217.041C260.641 218.131 261.68 219.646 261.68 221.31C261.68 223.306 260.186 225.312 257.581 226.816C254.914 228.356 251.488 229.146 248.238 229.146ZM241.245 227.15C245.371 229.532 252.61 229.229 257.382 226.473C259.861 225.042 261.283 223.16 261.283 221.31C261.283 219.794 260.314 218.4 258.556 217.385L197.074 181.889C192.949 179.506 185.709 179.81 180.936 182.565C178.457 183.997 177.036 185.879 177.036 187.729C177.036 189.244 178.004 190.638 179.763 191.653L241.245 227.15Z" fill="#87DBFF"/>
    <path opacity="0.4" d="M252.329 223.99C250.893 224.819 248.566 224.819 247.131 223.99C245.695 223.161 245.695 221.818 247.131 220.989C248.566 220.16 250.893 220.16 252.329 220.989C253.764 221.818 253.764 223.161 252.329 223.99Z" fill="#87DBFF"/>
    <path d="M249.73 224.747C248.763 224.747 247.797 224.535 247.061 224.11C246.322 223.684 245.915 223.107 245.915 222.489C245.916 221.871 246.322 221.296 247.061 220.869C248.533 220.019 250.926 220.019 252.398 220.869C253.137 221.296 253.543 221.871 253.543 222.489C253.543 223.107 253.137 223.684 252.398 224.11C251.662 224.535 250.696 224.747 249.73 224.747ZM249.73 220.505C248.813 220.505 247.897 220.706 247.2 221.109C246.55 221.483 246.192 221.974 246.192 222.489C246.192 223.005 246.55 223.495 247.2 223.87C248.594 224.677 250.865 224.677 252.259 223.87C252.909 223.495 253.267 223.005 253.267 222.489C253.267 221.973 252.909 221.484 252.259 221.109C251.562 220.706 250.646 220.505 249.73 220.505Z" fill="#87DBFF"/>
    <path opacity="0.4" d="M243.692 218.958C242.257 219.787 239.93 219.787 238.494 218.958C237.059 218.129 237.059 216.786 238.494 215.957C239.93 215.128 242.257 215.128 243.692 215.957C245.128 216.786 245.128 218.129 243.692 218.958Z" fill="#87DBFF"/>
    <path d="M241.093 218.066C240.127 218.066 239.161 217.854 238.425 217.43C237.686 217.003 237.279 216.427 237.279 215.809C237.279 215.19 237.686 214.615 238.424 214.188C239.896 213.339 242.29 213.339 243.761 214.188C244.5 214.615 244.907 215.19 244.907 215.809C244.907 216.427 244.501 217.003 243.761 217.43C243.025 217.854 242.059 218.066 241.093 218.066ZM241.093 213.824C240.177 213.824 239.26 214.025 238.563 214.429C237.914 214.803 237.556 215.293 237.556 215.809C237.556 216.324 237.914 216.814 238.563 217.189C239.959 217.995 242.229 217.994 243.623 217.189C244.272 216.814 244.63 216.324 244.63 215.809C244.63 215.293 244.272 214.804 243.623 214.429C242.925 214.025 242.009 213.824 241.093 213.824Z" fill="#87DBFF"/>
    <path d="M218.622 199.875C217.655 199.875 216.689 199.662 215.953 199.238C215.214 198.811 214.808 198.235 214.808 197.617C214.808 196.999 215.214 196.423 215.953 195.996C217.425 195.148 219.818 195.148 221.29 195.996C222.029 196.423 222.436 196.999 222.436 197.617C222.436 198.235 222.029 198.811 221.29 199.238C220.554 199.662 219.588 199.875 218.622 199.875ZM218.622 195.633C217.705 195.633 216.789 195.834 216.092 196.236C215.442 196.611 215.084 197.101 215.084 197.617C215.084 198.133 215.442 198.623 216.092 198.998C217.487 199.804 219.757 199.804 221.151 198.998C221.801 198.623 222.159 198.133 222.159 197.617C222.159 197.101 221.801 196.611 221.151 196.236C220.454 195.834 219.538 195.633 218.622 195.633Z" fill="#87DBFF"/>
    <path opacity="0.4" d="M221.221 206.403C219.786 207.231 217.458 207.231 216.023 206.403C214.587 205.574 214.587 204.23 216.023 203.401C217.458 202.573 219.786 202.573 221.221 203.401C222.656 204.23 222.656 205.574 221.221 206.403Z" fill="#87DBFF"/>
    <path d="M209.985 190.575C209.019 190.575 208.053 190.363 207.317 189.938C206.578 189.512 206.171 188.935 206.171 188.317C206.171 187.699 206.578 187.124 207.317 186.697C208.789 185.848 211.183 185.848 212.653 186.697C213.392 187.124 213.799 187.699 213.799 188.317C213.799 188.935 213.392 189.512 212.653 189.938C211.918 190.363 210.952 190.575 209.985 190.575ZM209.985 186.333C209.069 186.333 208.153 186.534 207.455 186.937C206.806 187.311 206.448 187.802 206.448 188.317C206.448 188.833 206.806 189.323 207.455 189.698C208.85 190.505 211.12 190.505 212.515 189.698C213.164 189.323 213.522 188.833 213.522 188.317C213.522 187.802 213.164 187.311 212.515 186.937C211.817 186.534 210.901 186.333 209.985 186.333Z" fill="#87DBFF"/>
    <path opacity="0.4" d="M212.584 201.783C211.149 202.612 208.822 202.612 207.386 201.783C205.951 200.955 205.951 199.611 207.386 198.782C208.822 197.953 211.149 197.954 212.584 198.782C214.02 199.611 214.02 200.955 212.584 201.783Z" fill="#87DBFF"/>
    <path d="M201.349 179.264C200.382 179.264 199.416 179.051 198.68 178.627C197.941 178.2 197.534 177.624 197.534 177.006C197.535 176.388 197.941 175.812 198.68 175.386C200.152 174.536 202.545 174.536 204.017 175.386C204.755 175.812 205.163 176.388 205.163 177.006C205.163 177.624 204.756 178.2 204.017 178.627C203.281 179.051 202.315 179.264 201.349 179.264ZM201.349 175.021C200.433 175.021 199.516 175.223 198.819 175.626C198.169 176.001 197.812 176.49 197.812 177.006C197.811 177.521 198.169 178.012 198.819 178.387C200.214 179.192 202.485 179.191 203.878 178.387C204.528 178.012 204.886 177.521 204.886 177.006C204.885 176.49 204.528 176 203.878 175.626C203.181 175.223 202.265 175.021 201.349 175.021Z" fill="#87DBFF"/>
    <path opacity="0.4" d="M203.797 196.996C202.361 197.824 200.034 197.824 198.599 196.996C197.163 196.167 197.163 194.823 198.599 193.994C200.034 193.166 202.361 193.166 203.797 193.995C205.232 194.823 205.232 196.167 203.797 196.996Z" fill="#87DBFF"/>
    <path opacity="0.4" d="M228.562 207.509L236.081 211.85C237.324 212.568 237.168 213.821 235.733 214.65C234.297 215.479 232.126 215.569 230.883 214.851L223.364 210.51C222.121 209.792 222.276 208.538 223.712 207.71C225.147 206.881 227.319 206.791 228.562 207.509Z" fill="#87DBFF"/>
    <path d="M232.988 211.969C232.173 211.969 231.395 211.804 230.813 211.469L223.294 207.127C222.709 206.789 222.386 206.315 222.386 205.792C222.385 205.17 222.843 204.549 223.642 204.087C225.115 203.238 227.351 203.148 228.631 203.886L236.15 208.227C236.735 208.565 237.058 209.04 237.058 209.563C237.058 210.184 236.6 210.806 235.802 211.267C234.999 211.731 233.967 211.969 232.988 211.969ZM226.457 203.659C225.528 203.659 224.546 203.886 223.781 204.327C223.07 204.737 222.663 205.271 222.663 205.792C222.663 206.212 222.936 206.6 223.433 206.887L230.952 211.228C232.154 211.923 234.269 211.834 235.663 211.027C236.374 210.617 236.781 210.083 236.781 209.563C236.781 209.143 236.508 208.754 236.011 208.468L228.492 204.126C227.949 203.812 227.221 203.659 226.457 203.659Z" fill="#87DBFF"/>
    <path opacity="0.4" d="M321.432 195.807C320.077 196.59 317.88 196.59 316.525 195.807C315.17 195.025 315.17 193.756 316.525 192.974C317.88 192.192 320.077 192.192 321.432 192.974C322.787 193.756 322.787 195.025 321.432 195.807Z" fill="#24126A"/>
    <path opacity="0.4" d="M302.7 182.159L312.307 187.706C313.48 188.383 313.333 189.567 311.978 190.349C310.623 191.131 308.573 191.216 307.399 190.539L297.793 184.992C296.619 184.315 296.766 183.131 298.121 182.349C299.477 181.567 301.527 181.482 302.7 182.159Z" fill="#24126A"/>
    <path opacity="0.4" d="M248.713 150.326L258.32 155.872C259.493 156.55 259.346 157.733 257.991 158.516C256.636 159.298 254.586 159.383 253.413 158.705L243.806 153.159C242.632 152.482 242.78 151.298 244.135 150.516C245.49 149.733 247.54 149.648 248.713 150.326Z" fill="#24126A"/>
    <path d="M321.432 192.364C320.077 193.146 317.88 193.146 316.525 192.364C315.17 191.581 315.17 190.313 316.525 189.53C317.88 188.748 320.077 188.748 321.432 189.53C322.787 190.313 322.787 191.581 321.432 192.364Z" fill="#87DBFF"/>
    <path d="M302.7 178.716L312.307 184.262C313.48 184.939 313.333 186.123 311.978 186.905C310.623 187.688 308.573 187.773 307.399 187.095L297.793 181.549C296.619 180.871 296.766 179.688 298.121 178.905C299.477 178.123 301.527 178.038 302.7 178.716Z" fill="#87DBFF"/>
    <path d="M248.713 146.882L258.32 152.428C259.493 153.106 259.346 154.29 257.991 155.072C256.636 155.854 254.586 155.939 253.413 155.262L243.806 149.715C242.632 149.038 242.78 147.854 244.135 147.072C245.49 146.29 247.54 146.205 248.713 146.882Z" fill="#87DBFF"/>
    <path opacity="0.6" d="M55.4087 106.278L27.5021 90.1662C25.5178 89.0206 25.7667 87.0196 28.0578 85.6968L54.8519 70.2273C57.143 68.9045 60.6089 68.7608 62.5931 69.9064L90.4997 86.0183C92.4839 87.1638 92.2351 89.1649 89.9439 90.4877L63.1499 105.957C60.8587 107.28 57.3929 107.424 55.4087 106.278Z" fill="#008FCC"/>
    <path d="M58.7279 110.748C57.1834 110.748 55.7069 110.437 54.6048 109.801L21.7309 90.8213C20.607 90.172 19.9883 89.2588 19.9883 88.2485C19.9883 87.0538 20.8621 85.8642 22.3855 84.9845L53.9484 66.7614C56.734 65.1538 60.9722 64.9846 63.3976 66.3836L96.2716 85.3632C97.3954 86.0125 98.0141 86.9256 98.0141 87.9361C98.0141 89.1306 97.1403 90.3203 95.6168 91.1999L64.0531 109.422C62.5342 110.299 60.5818 110.748 58.7279 110.748ZM54.9341 109.229C57.1785 110.525 61.1218 110.355 63.7235 108.851L95.2872 90.6286C96.6013 89.8704 97.3548 88.8885 97.3548 87.9361C97.3548 87.1712 96.853 86.4607 95.9415 85.9345L63.0675 66.955C60.8252 65.659 56.8827 65.8299 54.2781 67.3329L22.7156 85.5559C21.4012 86.3141 20.6476 87.296 20.6476 88.2485C20.6476 89.0134 21.1494 89.7238 22.0609 90.2499L54.9341 109.229Z" fill="#4160FF"/>
    <path d="M91.8394 71.7482H77.9995L62.5932 62.8533C60.6091 61.7078 57.1433 61.8514 54.852 63.1742L40.0015 71.7482H26.1685V81.0392H26.1729C26.1165 81.8145 26.5489 82.5627 27.5023 83.1131L55.4089 99.225C57.3931 100.371 60.8589 100.227 63.1501 98.9041L89.944 83.4346C91.1343 82.7474 91.768 81.8774 91.8292 81.0392H91.8394V71.7482Z" fill="url(#paint3_linear_64_1491)"/>
    <path d="M89.944 82.7942L63.1501 98.2637C60.8589 99.5865 57.3931 99.7302 55.4089 98.5846L27.5023 82.4727C26.5488 81.9222 26.1165 81.174 26.1729 80.3987H26.1685V81.0392H26.1729C26.1165 81.8145 26.5488 82.5627 27.5023 83.1131L55.4089 99.225C57.3931 100.371 60.8589 100.227 63.1501 98.9042L89.944 83.4346C91.1343 82.7474 91.768 81.8775 91.8291 81.0392H91.8394V80.3987H91.8291C91.768 81.237 91.1343 82.1069 89.944 82.7942Z" fill="url(#paint4_linear_64_1491)"/>
    <path d="M27.0463 81.6796H27.0419V72.3887H40.8749L55.7254 63.8146C58.0167 62.4919 61.4825 62.3482 63.4665 63.4938L78.8729 72.3887H91.8394V71.7482H77.9995L62.5932 62.8533C60.6091 61.7078 57.1433 61.8514 54.852 63.1742L40.0015 71.7482H26.1685V81.0392H26.1729C26.1165 81.8145 26.5488 82.5627 27.5023 83.1131L27.6593 83.2038C27.2115 82.7471 27.0068 82.2207 27.0463 81.6796Z" fill="#87DBFF"/>
    <path d="M91.0535 72.4929V81.7383H91.0432C91.0086 82.2138 90.7832 82.6984 90.3831 83.155C91.2898 82.5196 91.7762 81.7679 91.8293 81.0397H91.8396V71.8432C91.5551 72.0286 91.2878 72.2393 91.0535 72.4929Z" fill="#87DBFF"/>
    <path d="M55.4087 89.934L27.5021 73.8221C25.5178 72.6765 25.7667 70.6755 28.0578 69.3527L54.8519 53.8832C57.143 52.5604 60.6089 52.4167 62.5931 53.5623L90.4997 69.6742C92.4839 70.8197 92.2351 72.8207 89.9439 74.1435L63.1499 89.6131C60.8587 90.9359 57.3929 91.0795 55.4087 89.934Z" fill="url(#paint5_linear_64_1491)"/>
    <path d="M90.4998 69.6742L62.5932 53.5623C61.5656 52.9689 60.1402 52.7245 58.6867 52.8075C59.7438 52.8712 60.7337 53.1192 61.5011 53.5623L89.4078 69.6742C91.392 70.8197 91.1431 72.8208 88.852 74.1436L62.058 89.6131C60.9536 90.2507 59.5763 90.6115 58.2235 90.6888C59.8993 90.7897 61.7451 90.4242 63.1501 89.6131L89.944 74.1436C92.2351 72.8208 92.484 70.8197 90.4998 69.6742Z" fill="#87DBFF"/>
    <path d="M56.3263 85.2876L35.5499 73.2923C34.0727 72.4395 34.258 70.9497 35.9637 69.9649L55.9118 58.4479C57.6176 57.463 60.1979 57.3561 61.6751 58.209L82.4516 70.2043C83.9288 71.0571 83.7435 72.5469 82.0377 73.5317L62.0897 85.0487C60.3839 86.0335 57.8036 86.1405 56.3263 85.2876Z" fill="url(#paint6_linear_64_1491)"/>
    <path d="M57.0636 81.5574L42.0112 72.8668C40.941 72.2489 41.0752 71.1696 42.311 70.4561L56.7633 62.1121C57.9991 61.3986 59.8685 61.3211 60.9388 61.939L75.9912 70.6295C77.0614 71.2474 76.9273 72.3267 75.6914 73.0402L61.2392 81.3842C60.0033 82.0977 58.1339 82.1753 57.0636 81.5574Z" fill="#75CBF0"/>
    <path d="M56.6605 89.934L28.7539 73.822C26.7696 72.6765 27.0185 70.6755 29.3096 69.3527L56.1036 53.8832C57.1914 53.2551 58.5439 52.8964 59.8769 52.8117C58.1755 52.6901 56.2841 53.0563 54.8518 53.8832L28.0579 69.3527C25.7667 70.6755 25.5179 72.6765 27.5021 73.822L55.4087 89.934C56.4508 90.5356 57.9019 90.7782 59.3767 90.6846C58.3563 90.6116 57.4043 90.3635 56.6605 89.934Z" fill="#87DBFF"/>
    <mask id="mask1_64_1491" style="mask-type:luminance" maskUnits="userSpaceOnUse" x="41" y="61" width="36" height="21">
        <path d="M57.0636 81.5574L42.0112 72.8668C40.941 72.2489 41.0752 71.1696 42.311 70.4561L56.7633 62.1121C57.9991 61.3986 59.8685 61.3211 60.9388 61.939L75.9912 70.6295C77.0614 71.2474 76.9273 72.3267 75.6914 73.0402L61.2392 81.3842C60.0033 82.0977 58.1339 82.1753 57.0636 81.5574Z" fill="white"/>
    </mask>
    <g mask="url(#mask1_64_1491)">
        <path d="M42.3047 71.6317L56.7626 63.2845C57.9988 62.5707 59.869 62.4932 60.9396 63.1114L75.9977 71.8051C76.2352 71.9423 76.4039 72.1046 76.5238 72.2782C76.8853 71.6886 76.7295 71.0517 75.9977 70.6291L60.9396 61.9353C59.869 61.3171 57.9988 61.3947 56.7626 62.1084L42.3047 70.4556C41.3428 71.011 41.0577 71.7856 41.4788 72.3942C41.646 72.1213 41.9136 71.8576 42.3047 71.6317Z" fill="#4160FF"/>
        <path d="M42.3042 73.0499L56.7621 64.7027C57.9984 63.9889 59.8685 63.9114 60.9391 64.5295L75.9972 73.2234C76.1857 73.3322 76.3233 73.4587 76.4377 73.5916C76.9157 72.966 76.7861 72.2607 75.9972 71.8052L60.9391 63.1115C59.8685 62.4933 57.9984 62.5708 56.7621 63.2846L42.3042 71.6318C41.2857 72.2199 41.0286 73.053 41.564 73.6751C41.7348 73.4516 41.9789 73.2378 42.3042 73.0499Z" fill="#008FCC"/>
        <path d="M41.7105 75.2466C41.8685 75.0818 42.0585 74.9228 42.3047 74.7806L56.7626 66.4334C57.9988 65.7195 59.869 65.6421 60.9396 66.2602L75.9977 74.954C76.1119 75.0199 76.2053 75.0934 76.2921 75.1688C76.9271 74.5068 76.855 73.7182 75.9977 73.2233L60.9396 64.5294C59.869 63.9113 57.9988 63.9888 56.7626 64.7026L42.3047 73.0498C41.2003 73.6875 40.9825 74.6149 41.7105 75.2466Z" fill="#87DBFF"/>
    </g>
    <path style="mix-blend-mode:lighten" opacity="0.4" d="M76.7137 46.5714H41.2887V71.8239L41.291 71.8253C41.2933 72.2156 41.5287 72.5882 42.0112 72.8668L57.0636 81.5573C58.1339 82.1752 60.0033 82.0977 61.2391 81.3843L75.6914 73.0401C76.3325 72.6701 76.6743 72.2016 76.7081 71.7501L76.7137 71.7468V46.5714Z" fill="url(#paint7_linear_64_1491)"/>
    <path opacity="0.6" d="M267.942 333.779L246.789 321.566C245.285 320.698 245.473 319.181 247.21 318.178L267.52 306.453C269.256 305.45 271.884 305.341 273.388 306.209L294.541 318.422C296.045 319.29 295.856 320.807 294.119 321.81L273.81 333.536C272.073 334.538 269.446 334.647 267.942 333.779Z" fill="#008FCC"/>
    <path d="M270.458 337.167C269.287 337.167 268.168 336.931 267.332 336.449L242.414 322.063C241.562 321.571 241.093 320.878 241.093 320.113C241.093 319.207 241.756 318.305 242.91 317.639L266.835 303.826C268.946 302.607 272.159 302.479 273.997 303.539L298.916 317.926C299.767 318.418 300.236 319.11 300.236 319.876C300.236 320.781 299.574 321.683 298.419 322.35L274.494 336.162C273.343 336.827 271.863 337.167 270.458 337.167ZM267.582 336.016C269.283 336.998 272.272 336.869 274.244 335.729L298.169 321.917C299.165 321.342 299.737 320.598 299.737 319.876C299.737 319.296 299.356 318.757 298.665 318.359L273.747 303.972C272.047 302.99 269.059 303.119 267.085 304.259L243.161 318.072C242.164 318.646 241.593 319.391 241.593 320.113C241.593 320.692 241.973 321.231 242.664 321.63L267.582 336.016Z" fill="#4160FF"/>
    <path d="M295.556 307.605H285.065L273.388 300.863C271.884 299.995 269.256 300.104 267.52 301.106L256.263 307.605H245.778V314.648H245.781C245.738 315.236 246.066 315.803 246.789 316.22L267.942 328.433C269.446 329.301 272.073 329.192 273.81 328.19L294.119 316.464C295.022 315.943 295.502 315.283 295.548 314.648H295.556V307.605Z" fill="url(#paint8_linear_64_1491)"/>
    <path d="M294.119 315.978L273.81 327.704C272.073 328.707 269.446 328.816 267.942 327.947L246.789 315.735C246.066 315.317 245.738 314.75 245.781 314.162H245.778V314.648H245.781C245.738 315.236 246.066 315.803 246.789 316.22L267.942 328.433C269.446 329.301 272.073 329.192 273.81 328.19L294.119 316.464C295.022 315.943 295.502 315.283 295.548 314.648H295.556V314.162H295.548C295.502 314.798 295.022 315.457 294.119 315.978Z" fill="url(#paint9_linear_64_1491)"/>
    <path d="M246.443 315.133H246.44V308.091H256.925L268.182 301.592C269.919 300.589 272.546 300.48 274.05 301.349L285.727 308.091H295.556V307.605H285.065L273.388 300.863C271.884 299.995 269.256 300.104 267.52 301.106L256.263 307.605H245.778V314.648H245.781C245.738 315.236 246.066 315.803 246.789 316.22L246.908 316.289C246.568 315.943 246.413 315.544 246.443 315.133Z" fill="#87DBFF"/>
    <path d="M294.96 308.17V315.178H294.952C294.926 315.538 294.755 315.906 294.452 316.252C295.139 315.77 295.508 315.2 295.548 314.648H295.556V307.677C295.34 307.818 295.138 307.978 294.96 308.17Z" fill="#87DBFF"/>
    <path d="M267.942 321.39L246.789 309.177C245.285 308.309 245.473 306.792 247.21 305.79L267.52 294.064C269.256 293.061 271.884 292.952 273.388 293.821L294.541 306.033C296.045 306.902 295.856 308.418 294.119 309.421L273.81 321.147C272.073 322.15 269.446 322.259 267.942 321.39Z" fill="url(#paint10_linear_64_1491)"/>
    <path d="M294.54 306.033L273.387 293.821C272.608 293.371 271.528 293.186 270.426 293.249C271.227 293.297 271.978 293.485 272.56 293.821L293.713 306.033C295.217 306.902 295.028 308.418 293.291 309.421L272.982 321.147C272.144 321.63 271.101 321.904 270.075 321.962C271.345 322.039 272.744 321.762 273.809 321.147L294.119 309.421C295.856 308.418 296.044 306.902 294.54 306.033Z" fill="#87DBFF"/>
    <path d="M268.637 317.868L252.889 308.776C251.769 308.129 251.909 307 253.202 306.254L268.323 297.524C269.616 296.777 271.572 296.696 272.691 297.343L288.44 306.435C289.559 307.082 289.419 308.211 288.126 308.957L273.006 317.687C271.713 318.434 269.757 318.515 268.637 317.868Z" fill="url(#paint11_linear_64_1491)"/>
    <path d="M269.196 315.041L257.786 308.453C256.975 307.985 257.077 307.167 258.014 306.626L268.968 300.301C269.905 299.761 271.322 299.702 272.133 300.17L283.543 306.757C284.354 307.226 284.253 308.044 283.316 308.585L272.361 314.91C271.424 315.45 270.007 315.509 269.196 315.041Z" fill="#75CBF0"/>
    <path d="M268.891 321.39L247.738 309.177C246.234 308.309 246.422 306.792 248.159 305.79L268.469 294.064C269.293 293.588 270.318 293.316 271.329 293.252C270.039 293.16 268.605 293.437 267.52 294.064L247.21 305.79C245.473 306.792 245.285 308.309 246.789 309.177L267.942 321.39C268.732 321.846 269.832 322.03 270.95 321.959C270.176 321.904 269.454 321.716 268.891 321.39Z" fill="#87DBFF"/>
    <mask id="mask2_64_1491" style="mask-type:luminance" maskUnits="userSpaceOnUse" x="257" y="299" width="28" height="17">
        <path d="M269.196 315.041L257.786 308.453C256.975 307.985 257.077 307.167 258.014 306.626L268.968 300.301C269.905 299.761 271.322 299.702 272.133 300.17L283.543 306.757C284.354 307.226 284.253 308.044 283.316 308.585L272.361 314.91C271.424 315.45 270.007 315.509 269.196 315.041Z" fill="white"/>
    </mask>
    <g mask="url(#mask2_64_1491)">
        <path d="M258.009 307.517L268.968 301.19C269.905 300.649 271.322 300.59 272.134 301.059L283.548 307.649C283.728 307.753 283.856 307.876 283.947 308.007C284.221 307.56 284.103 307.077 283.548 306.757L272.134 300.167C271.322 299.699 269.905 299.758 268.968 300.299L258.009 306.626C257.28 307.047 257.064 307.634 257.383 308.095C257.509 307.888 257.712 307.688 258.009 307.517Z" fill="#4160FF"/>
        <path d="M258.008 308.592L268.967 302.265C269.905 301.724 271.322 301.665 272.134 302.134L283.548 308.724C283.69 308.806 283.795 308.902 283.881 309.003C284.244 308.529 284.146 307.994 283.548 307.649L272.134 301.059C271.322 300.59 269.905 300.649 268.967 301.19L258.008 307.517C257.236 307.963 257.042 308.595 257.447 309.066C257.577 308.897 257.762 308.735 258.008 308.592Z" fill="#008FCC"/>
        <path d="M257.558 310.257C257.678 310.132 257.822 310.012 258.009 309.904L268.968 303.577C269.905 303.036 271.322 302.977 272.134 303.446L283.548 310.035C283.634 310.085 283.705 310.141 283.771 310.198C284.252 309.697 284.198 309.099 283.548 308.724L272.134 302.134C271.322 301.665 269.905 301.724 268.968 302.265L258.009 308.592C257.172 309.075 257.006 309.778 257.558 310.257Z" fill="#87DBFF"/>
    </g>
    <path style="mix-blend-mode:lighten" opacity="0.4" d="M284.091 288.522H257.239V307.663L257.241 307.664C257.242 307.96 257.421 308.242 257.786 308.453L269.196 315.041C270.007 315.509 271.424 315.45 272.361 314.91L283.316 308.585C283.802 308.304 284.061 307.949 284.086 307.607L284.091 307.604V288.522Z" fill="url(#paint12_linear_64_1491)"/>
    <path style="mix-blend-mode:lighten" opacity="0.25" d="M359.585 193.373H321.02V278.796L321.022 278.797C321.025 279.239 321.281 279.66 321.807 279.975L338.193 289.805C339.358 290.504 341.393 290.417 342.739 289.609L358.472 280.172C359.17 279.753 359.542 279.223 359.578 278.712L359.585 278.709V193.373Z" fill="url(#paint13_linear_64_1491)"/>
    <path opacity="0.3" d="M357.992 168.127L357.992 243.353C357.992 246.23 356.882 248.545 354.947 249.706C353.013 250.866 350.528 250.707 348.13 249.269L252.009 191.608C251.058 191.037 250.497 191.072 250.332 191.171C250.168 191.269 249.858 191.756 249.859 192.897L249.858 222.859C249.858 224.334 248.707 225.529 247.288 225.529C245.868 225.529 244.718 224.334 244.717 222.859L244.718 192.897C244.718 190.021 245.827 187.706 247.762 186.545C249.696 185.384 252.182 185.544 254.579 186.982L350.701 244.643C351.651 245.214 352.213 245.178 352.377 245.08C352.541 244.982 352.852 244.494 352.851 243.353C352.851 243.353 352.851 172.728 352.851 168.127C352.851 163.525 357.992 163.872 357.992 168.127Z" fill="#87DBFF"/>
    <path d="M354.097 161.715C355.231 163.756 355.934 166.055 355.934 168.127L355.934 243.353C355.934 245.476 355.219 247.075 353.919 247.854C352.619 248.634 350.928 248.479 349.159 247.417L253.038 189.756C251.598 188.893 250.272 188.737 249.303 189.319C248.334 189.9 247.801 191.171 247.801 192.897L247.8 222.859L246.775 222.859L246.776 192.897C246.776 190.774 247.491 189.176 248.79 188.396C250.09 187.616 251.78 187.772 253.55 188.834L349.671 246.495C351.11 247.358 352.437 247.513 353.406 246.932C354.375 246.351 354.909 245.079 354.909 243.353L354.909 168.127C354.908 164.324 352.328 159.682 349.16 157.779L324.541 143.011L325.053 142.089L349.672 156.857C351.399 157.892 352.964 159.675 354.097 161.715Z" fill="#87DBFF"/>
    <path d="M336.731 149.709C336.092 150.859 334.684 151.256 333.585 150.597C332.487 149.938 332.114 148.472 332.753 147.323C333.392 146.173 334.8 145.776 335.898 146.435C336.997 147.094 337.37 148.56 336.731 149.709Z" fill="#87DBFF"/>
    <path d="M348.665 156.868C348.026 158.018 346.618 158.416 345.52 157.757C344.421 157.098 344.048 155.632 344.687 154.482C345.326 153.333 346.734 152.935 347.833 153.594C348.931 154.253 349.304 155.719 348.665 156.868Z" fill="#87DBFF"/>
    <path d="M355.421 168.573C354.778 168.594 354.214 168.258 353.776 167.922C353.347 167.583 353.059 167.177 352.954 166.667C352.771 165.683 353.391 164.443 354.565 163.919C355.733 163.393 357.178 164.129 357.492 165.735C357.651 166.515 357.452 167.304 357.046 167.827C356.649 168.353 356.055 168.552 355.421 168.573Z" fill="#87DBFF"/>
    <path d="M355.421 182.891C354.144 182.891 353.108 181.822 353.108 180.504C353.108 179.186 354.144 178.118 355.421 178.118C356.699 178.118 357.735 179.186 357.734 180.504C357.734 181.822 356.699 182.891 355.421 182.891Z" fill="#87DBFF"/>
    <path d="M355.421 197.208C354.144 197.208 353.108 196.14 353.108 194.822C353.108 193.504 354.144 192.436 355.421 192.436C356.699 192.435 357.734 193.504 357.734 194.822C357.735 196.14 356.699 197.208 355.421 197.208Z" fill="#87DBFF"/>
    <path d="M355.421 211.526C354.144 211.526 353.108 210.458 353.108 209.14C353.108 207.822 354.144 206.754 355.421 206.754C356.699 206.754 357.734 207.822 357.734 209.14C357.734 210.458 356.699 211.527 355.421 211.526Z" fill="#87DBFF"/>
    <path d="M355.421 225.845C354.144 225.845 353.108 224.776 353.108 223.458C353.108 222.14 354.144 221.072 355.422 221.072C356.699 221.072 357.735 222.14 357.735 223.458C357.735 224.776 356.699 225.844 355.421 225.845Z" fill="#87DBFF"/>
    <path d="M355.422 240.162C354.144 240.162 353.108 239.094 353.108 237.776C353.108 236.458 354.144 235.389 355.422 235.389C356.699 235.389 357.735 236.458 357.735 237.776C357.735 239.094 356.699 240.162 355.422 240.162Z" fill="#87DBFF"/>
    <path d="M347.879 246.034C348.198 245.459 348.71 245.072 349.279 244.912C349.564 244.831 349.863 244.807 350.159 244.845C350.301 244.858 350.469 244.909 350.586 244.936C350.694 244.956 350.796 244.992 350.893 245.046C351.276 245.236 351.494 245.596 351.684 246.061C351.868 246.55 352.07 247.128 352.082 247.799C352.095 248.452 351.777 249.093 351.142 249.413C350.509 249.758 349.621 249.752 348.865 249.366C348.68 249.268 348.507 249.155 348.351 249.033C348.203 248.914 348.125 248.808 348.028 248.681C347.848 248.433 347.719 248.151 347.643 247.855C347.493 247.263 347.559 246.609 347.879 246.034Z" fill="#87DBFF"/>
    <path d="M335.945 238.875C336.583 237.725 337.991 237.328 339.09 237.986C340.189 238.646 340.561 240.112 339.923 241.261C339.284 242.411 337.876 242.808 336.777 242.149C335.678 241.49 335.306 240.024 335.945 238.875Z" fill="#87DBFF"/>
    <path d="M324.011 231.716C324.649 230.566 326.058 230.169 327.156 230.828C328.255 231.487 328.628 232.953 327.989 234.102C327.35 235.252 325.942 235.65 324.843 234.991C323.745 234.332 323.372 232.866 324.011 231.716Z" fill="#87DBFF"/>
    <path d="M312.077 224.557C312.716 223.408 314.124 223.01 315.223 223.669C316.321 224.328 316.694 225.794 316.055 226.944C315.416 228.093 314.008 228.491 312.909 227.832C311.811 227.173 311.438 225.707 312.077 224.557Z" fill="#87DBFF"/>
    <path d="M300.143 217.398C300.782 216.249 302.19 215.851 303.289 216.51C304.387 217.169 304.76 218.635 304.121 219.785C303.483 220.934 302.074 221.332 300.976 220.673C299.877 220.014 299.505 218.548 300.143 217.398Z" fill="#87DBFF"/>
    <path d="M288.209 210.24C288.848 209.09 290.257 208.692 291.355 209.351C292.453 210.011 292.826 211.476 292.187 212.626C291.549 213.776 290.14 214.173 289.042 213.514C287.943 212.855 287.571 211.389 288.209 210.24Z" fill="#87DBFF"/>
    <path d="M276.275 203.08C276.914 201.931 278.322 201.533 279.421 202.192C280.52 202.851 280.892 204.317 280.253 205.467C279.615 206.616 278.206 207.014 277.108 206.355C276.009 205.696 275.637 204.23 276.275 203.08Z" fill="#87DBFF"/>
    <path d="M264.341 195.921C264.98 194.772 266.388 194.374 267.487 195.033C268.586 195.692 268.958 197.158 268.319 198.308C267.681 199.457 266.272 199.855 265.174 199.196C264.075 198.537 263.703 197.071 264.341 195.921Z" fill="#87DBFF"/>
    <path d="M252.372 188.835C252.597 188.222 253.094 187.748 253.733 187.616C253.893 187.58 254.064 187.562 254.241 187.562C254.393 187.552 254.538 187.554 254.688 187.574C254.984 187.611 255.278 187.71 255.553 187.874C256.652 188.533 257.024 189.999 256.385 191.149C255.747 192.299 254.339 192.696 253.24 192.037C252.073 191.316 251.998 190.091 252.372 188.835Z" fill="#87DBFF"/>
    <path d="M247.288 198.995C246.01 198.996 244.975 197.927 244.975 196.609C244.975 195.291 246.01 194.223 247.288 194.223C248.565 194.223 249.601 195.291 249.601 196.609C249.601 197.927 248.565 198.995 247.288 198.995Z" fill="#87DBFF"/>
    <path d="M247.288 213.313C246.01 213.313 244.975 212.245 244.975 210.927C244.975 209.609 246.01 208.54 247.288 208.54C248.565 208.54 249.601 209.609 249.601 210.927C249.601 212.245 248.565 213.313 247.288 213.313Z" fill="#87DBFF"/>
    <path d="M370.714 168.108C369.169 168.108 367.693 167.796 366.591 167.16L333.717 148.181C332.593 147.531 331.974 146.618 331.974 145.608C331.974 144.413 332.848 143.224 334.371 142.344L365.934 124.121C368.72 122.513 372.958 122.344 375.383 123.743L408.257 142.723C409.381 143.372 410 144.285 410 145.295C410 146.49 409.126 147.68 407.603 148.559L376.039 166.782C374.52 167.659 372.568 168.108 370.714 168.108Z" fill="#DEFAFC"/>
    <g opacity="0.3">
        <path d="M387.702 138.262V133.78L386.462 133.091C386.112 135.206 383.623 136.599 381.542 136.889L367.368 145.178L361.182 147.411L341.438 137.222L341.894 136.959C340.207 136.17 339.298 134.367 338.385 132.722L337.056 133.515L336.266 133.737V138.333C336.266 139.211 336.845 140.09 338.003 140.758L357.784 152.179C360.1 153.516 363.869 153.516 366.185 152.179L385.965 140.758C387.104 140.101 387.683 139.24 387.701 138.376C387.702 138.338 387.7 138.299 387.699 138.261L387.702 138.262Z" fill="#7A90FF"/>
        <path opacity="0.3" d="M381.542 136.889L367.368 145.178L361.984 147.122V153.181C363.505 153.181 365.027 152.847 366.185 152.179L385.965 140.758C387.104 140.101 387.683 139.24 387.701 138.376C387.702 138.338 387.7 138.299 387.699 138.261L387.702 138.262V133.78L386.569 133.15H386.45C386.064 135.232 383.603 136.602 381.542 136.889Z" fill="#4160FF"/>
        <path d="M357.784 147.625L338.003 136.205C335.687 134.868 335.687 132.692 338.003 131.355L357.783 119.935C360.099 118.597 363.868 118.597 366.184 119.935L385.965 131.355C388.281 132.692 388.281 134.868 385.965 136.205L366.185 147.625C363.869 148.962 360.1 148.962 357.784 147.625Z" fill="#00178F"/>
        <g opacity="0.3">
            <path d="M357.784 147.625L338.003 136.205C335.687 134.868 335.687 132.692 338.003 131.355L357.783 119.935C360.099 118.597 363.868 118.597 366.184 119.935L385.965 131.355C388.281 132.692 388.281 134.868 385.965 136.205L366.185 147.625C363.869 148.962 360.1 148.962 357.784 147.625Z" fill="#4160FF"/>
        </g>
    </g>
    <path opacity="0.6" d="M358.392 163.637L330.486 147.525C328.501 146.38 328.75 144.379 331.041 143.056L357.835 127.586C360.126 126.264 363.592 126.12 365.577 127.266L393.483 143.377C395.467 144.523 395.219 146.524 392.927 147.847L366.133 163.316C363.842 164.639 360.376 164.783 358.392 163.637Z" fill="#008FCC"/>
    <path d="M361.711 168.108C360.167 168.108 358.69 167.796 357.588 167.16L324.714 148.18C323.59 147.531 322.972 146.618 322.972 145.608C322.972 144.413 323.846 143.223 325.369 142.344L356.932 124.121C359.717 122.513 363.956 122.344 366.381 123.743L399.255 142.722C400.379 143.372 400.997 144.285 400.997 145.295C400.997 146.49 400.124 147.679 398.6 148.559L367.037 166.781C365.518 167.658 363.565 168.108 361.711 168.108ZM357.917 166.589C360.162 167.884 364.105 167.714 366.707 166.21L398.271 147.988C399.585 147.229 400.338 146.248 400.338 145.295C400.338 144.53 399.836 143.82 398.925 143.294L366.051 124.314C363.809 123.018 359.866 123.189 357.261 124.692L325.699 142.915C324.385 143.673 323.631 144.655 323.631 145.608C323.631 146.372 324.133 147.083 325.044 147.609L357.917 166.589Z" fill="#4160FF"/>
    <path d="M394.823 113.615H380.983L365.576 104.72C363.592 103.575 360.127 103.718 357.835 105.041L342.985 113.615H329.152V122.906H329.156C329.1 123.681 329.532 124.43 330.486 124.98L358.392 141.092C360.376 142.237 363.842 142.094 366.133 140.771L392.927 125.301C394.118 124.614 394.751 123.744 394.812 122.906H394.823V113.615Z" fill="url(#paint14_linear_64_1491)"/>
    <path d="M392.927 124.661L366.133 140.131C363.842 141.453 360.376 141.597 358.392 140.451L330.486 124.34C329.532 123.789 329.1 123.041 329.156 122.266H329.152V122.906H329.156C329.1 123.681 329.532 124.43 330.486 124.98L358.392 141.092C360.376 142.237 363.842 142.094 366.133 140.771L392.927 125.301C394.118 124.614 394.751 123.744 394.812 122.906H394.823V122.266H394.812C394.751 123.104 394.118 123.974 392.927 124.661Z" fill="url(#paint15_linear_64_1491)"/>
    <path d="M330.03 123.546H330.025V114.255H343.858L358.709 105.681C361 104.359 364.466 104.215 366.45 105.361L381.856 114.255H394.823V113.615H380.983L365.576 104.72C363.592 103.575 360.127 103.718 357.835 105.041L342.985 113.615H329.152V122.906H329.156C329.1 123.681 329.532 124.43 330.486 124.98L330.643 125.071C330.195 124.614 329.99 124.088 330.03 123.546Z" fill="#87DBFF"/>
    <path d="M394.037 114.36V123.605H394.027C393.992 124.081 393.766 124.565 393.366 125.022C394.273 124.386 394.76 123.635 394.813 122.906H394.823V113.71C394.538 113.895 394.271 114.106 394.037 114.36Z" fill="#87DBFF"/>
    <path d="M358.392 131.801L330.485 115.689C328.501 114.543 328.75 112.542 331.041 111.219L357.835 95.75C360.126 94.4272 363.592 94.2835 365.576 95.4291L393.483 111.541C395.467 112.687 395.218 114.688 392.927 116.01L366.133 131.48C363.842 132.803 360.376 132.946 358.392 131.801Z" fill="url(#paint16_linear_64_1491)"/>
    <path d="M393.483 111.541L365.576 95.4292C364.549 94.8358 363.123 94.5913 361.67 94.6743C362.727 94.7381 363.717 94.986 364.484 95.4292L392.391 111.541C394.375 112.687 394.126 114.688 391.835 116.01L365.041 131.48C363.937 132.118 362.56 132.478 361.207 132.556C362.883 132.657 364.728 132.291 366.133 131.48L392.927 116.01C395.218 114.688 395.467 112.687 393.483 111.541Z" fill="#87DBFF"/>
    <path d="M359.31 127.154L338.533 115.159C337.056 114.306 337.241 112.816 338.947 111.832L358.895 100.315C360.601 99.3299 363.181 99.2229 364.658 100.076L385.435 112.071C386.912 112.924 386.727 114.414 385.021 115.399L365.073 126.916C363.367 127.9 360.787 128.007 359.31 127.154Z" fill="url(#paint17_linear_64_1491)"/>
    <path d="M360.047 123.424L344.994 114.734C343.924 114.116 344.058 113.036 345.294 112.323L359.747 103.979C360.982 103.265 362.852 103.188 363.922 103.806L378.974 112.496C380.045 113.114 379.911 114.194 378.675 114.907L364.222 123.251C362.987 123.965 361.117 124.042 360.047 123.424Z" fill="#75CBF0"/>
    <path d="M359.644 131.801L331.737 115.689C329.753 114.543 330.002 112.542 332.293 111.22L359.087 95.75C360.175 95.1219 361.527 94.7632 362.86 94.6785C361.159 94.5569 359.267 94.9231 357.835 95.75L331.041 111.22C328.75 112.542 328.501 114.543 330.485 115.689L358.392 131.801C359.434 132.402 360.885 132.645 362.36 132.551C361.34 132.478 360.388 132.23 359.644 131.801Z" fill="#87DBFF"/>
    <mask id="mask3_64_1491" style="mask-type:luminance" maskUnits="userSpaceOnUse" x="344" y="103" width="36" height="21">
        <path d="M360.047 123.424L344.994 114.734C343.924 114.116 344.058 113.036 345.294 112.323L359.747 103.979C360.982 103.265 362.852 103.188 363.922 103.806L378.974 112.496C380.045 113.114 379.911 114.194 378.675 114.907L364.222 123.251C362.987 123.965 361.117 124.042 360.047 123.424Z" fill="white"/>
    </mask>
    <g mask="url(#mask3_64_1491)">
        <path d="M345.288 113.498L359.746 105.151C360.982 104.438 362.852 104.36 363.923 104.978L378.981 113.672C379.219 113.809 379.387 113.971 379.507 114.145C379.869 113.555 379.713 112.918 378.981 112.496L363.923 103.802C362.852 103.184 360.982 103.261 359.746 103.975L345.288 112.322C344.326 112.878 344.041 113.652 344.462 114.261C344.629 113.988 344.897 113.724 345.288 113.498Z" fill="#4160FF"/>
        <path d="M345.288 114.917L359.745 106.57C360.982 105.856 362.852 105.778 363.922 106.396L378.98 115.09C379.169 115.199 379.307 115.326 379.421 115.458C379.899 114.833 379.769 114.127 378.98 113.672L363.922 104.978C362.852 104.36 360.982 104.438 359.745 105.151L345.288 113.499C344.269 114.087 344.012 114.92 344.547 115.542C344.718 115.318 344.962 115.105 345.288 114.917Z" fill="#008FCC"/>
        <path d="M344.694 117.113C344.852 116.949 345.042 116.79 345.288 116.647L359.746 108.3C360.982 107.586 362.852 107.509 363.923 108.127L378.981 116.821C379.095 116.887 379.189 116.96 379.275 117.036C379.91 116.374 379.838 115.585 378.981 115.09L363.923 106.396C362.852 105.778 360.982 105.856 359.746 106.569L345.288 114.917C344.184 115.554 343.966 116.482 344.694 117.113Z" fill="#87DBFF"/>
    </g>
    <path style="mix-blend-mode:lighten" opacity="0.4" d="M379.697 88.4382H344.272V113.691L344.274 113.692C344.277 114.082 344.512 114.455 344.994 114.734L360.047 123.424C361.117 124.042 362.987 123.964 364.222 123.251L378.675 114.907C379.316 114.537 379.658 114.068 379.691 113.617L379.697 113.614V88.4382Z" fill="url(#paint18_linear_64_1491)"/>
    <defs>
        <linearGradient id="paint0_linear_64_1491" x1="56.4971" y1="228.873" x2="346.786" y2="228.873" gradientUnits="userSpaceOnUse">
            <stop stop-color="#87DBFF"/>
            <stop offset="0.151" stop-color="#008FCC"/>
            <stop offset="0.3866" stop-color="#008FCC"/>
            <stop offset="0.6124" stop-color="#4160FF"/>
            <stop offset="0.8221" stop-color="#4160FF"/>
            <stop offset="1" stop-color="#110463"/>
        </linearGradient>
        <linearGradient id="paint1_linear_64_1491" x1="242.075" y1="269.941" x2="161.042" y2="162.408" gradientUnits="userSpaceOnUse">
            <stop stop-color="#42E8E0"/>
            <stop offset="0.1055" stop-color="#36B5BF"/>
            <stop offset="0.2197" stop-color="#2C87A0"/>
            <stop offset="0.338" stop-color="#235F86"/>
            <stop offset="0.4587" stop-color="#1B3E71"/>
            <stop offset="0.5824" stop-color="#162560"/>
            <stop offset="0.7105" stop-color="#121355"/>
            <stop offset="0.8458" stop-color="#0F084E"/>
            <stop offset="1" stop-color="#0F054C"/>
        </linearGradient>
        <radialGradient id="paint2_radial_64_1491" cx="0" cy="0" r="1" gradientUnits="userSpaceOnUse" gradientTransform="translate(159.104 232.92) scale(227.211 227.211)">
            <stop stop-color="#42E8E0"/>
            <stop offset="0.1055" stop-color="#36B5BF"/>
            <stop offset="0.2197" stop-color="#2C87A0"/>
            <stop offset="0.338" stop-color="#235F86"/>
            <stop offset="0.4587" stop-color="#1B3E71"/>
            <stop offset="0.5824" stop-color="#162560"/>
            <stop offset="0.7105" stop-color="#121355"/>
            <stop offset="0.8458" stop-color="#0F084E"/>
            <stop offset="1" stop-color="#0F054C"/>
        </radialGradient>
        <linearGradient id="paint3_linear_64_1491" x1="19.9537" y1="81.0392" x2="99.967" y2="81.0392" gradientUnits="userSpaceOnUse">
            <stop stop-color="#110463"/>
            <stop offset="0.15" stop-color="#4160FF"/>
            <stop offset="0.535" stop-color="#00178F"/>
            <stop offset="1" stop-color="#87DBFF"/>
        </linearGradient>
        <linearGradient id="paint4_linear_64_1491" x1="56.0439" y1="80.5949" x2="57.636" y2="100.155" gradientUnits="userSpaceOnUse">
            <stop stop-color="#87DBFF"/>
            <stop offset="0.2204" stop-color="#87DBFF"/>
            <stop offset="0.4892" stop-color="#87DBFF"/>
            <stop offset="0.7742" stop-color="#DEFAFC"/>
            <stop offset="1" stop-color="#DEFAFC"/>
        </linearGradient>
        <linearGradient id="paint5_linear_64_1491" x1="289.66" y1="224.162" x2="338.689" y2="214.727" gradientUnits="userSpaceOnUse">
            <stop stop-color="#DEFAFC"/>
            <stop offset="0.1651" stop-color="#008FCC"/>
            <stop offset="0.4284" stop-color="#008FCC"/>
            <stop offset="0.7551" stop-color="#87DBFF"/>
            <stop offset="1" stop-color="#87DBFF"/>
        </linearGradient>
        <linearGradient id="paint6_linear_64_1491" x1="295.057" y1="222.355" x2="331.559" y2="215.331" gradientUnits="userSpaceOnUse">
            <stop stop-color="#00178F"/>
            <stop offset="0.2262" stop-color="#87DBFF"/>
            <stop offset="0.587" stop-color="#008FCC"/>
            <stop offset="1" stop-color="#75CBF0"/>
        </linearGradient>
        <linearGradient id="paint7_linear_64_1491" x1="59.0012" y1="81.9745" x2="59.0012" y2="46.5714" gradientUnits="userSpaceOnUse">
            <stop offset="0.0108" stop-color="#25BFEC"/>
            <stop offset="0.0453" stop-color="#23B4E1"/>
            <stop offset="0.2186" stop-color="#1E82AF"/>
            <stop offset="0.3902" stop-color="#1A5986"/>
            <stop offset="0.5567" stop-color="#173A66"/>
            <stop offset="0.7168" stop-color="#14234F"/>
            <stop offset="0.8678" stop-color="#131541"/>
            <stop offset="1" stop-color="#13113D"/>
        </linearGradient>
        <linearGradient id="paint8_linear_64_1491" x1="241.067" y1="314.648" x2="301.717" y2="314.648" gradientUnits="userSpaceOnUse">
            <stop stop-color="#110463"/>
            <stop offset="0.15" stop-color="#4160FF"/>
            <stop offset="0.535" stop-color="#00178F"/>
            <stop offset="1" stop-color="#87DBFF"/>
        </linearGradient>
        <linearGradient id="paint9_linear_64_1491" x1="268.423" y1="314.311" x2="269.63" y2="329.137" gradientUnits="userSpaceOnUse">
            <stop stop-color="#87DBFF"/>
            <stop offset="0.2204" stop-color="#87DBFF"/>
            <stop offset="0.4892" stop-color="#87DBFF"/>
            <stop offset="0.7742" stop-color="#DEFAFC"/>
            <stop offset="1" stop-color="#DEFAFC"/>
        </linearGradient>
        <linearGradient id="paint10_linear_64_1491" x1="445.503" y1="423.134" x2="482.667" y2="415.983" gradientUnits="userSpaceOnUse">
            <stop stop-color="#DEFAFC"/>
            <stop offset="0.1651" stop-color="#008FCC"/>
            <stop offset="0.4284" stop-color="#008FCC"/>
            <stop offset="0.7551" stop-color="#87DBFF"/>
            <stop offset="1" stop-color="#87DBFF"/>
        </linearGradient>
        <linearGradient id="paint11_linear_64_1491" x1="449.594" y1="421.765" x2="477.262" y2="416.44" gradientUnits="userSpaceOnUse">
            <stop stop-color="#00178F"/>
            <stop offset="0.2262" stop-color="#87DBFF"/>
            <stop offset="0.587" stop-color="#008FCC"/>
            <stop offset="1" stop-color="#75CBF0"/>
        </linearGradient>
        <linearGradient id="paint12_linear_64_1491" x1="270.665" y1="315.357" x2="270.665" y2="288.522" gradientUnits="userSpaceOnUse">
            <stop offset="0.0108" stop-color="#25BFEC"/>
            <stop offset="0.0453" stop-color="#23B4E1"/>
            <stop offset="0.2186" stop-color="#1E82AF"/>
            <stop offset="0.3902" stop-color="#1A5986"/>
            <stop offset="0.5567" stop-color="#173A66"/>
            <stop offset="0.7168" stop-color="#14234F"/>
            <stop offset="0.8678" stop-color="#131541"/>
            <stop offset="1" stop-color="#13113D"/>
        </linearGradient>
        <linearGradient id="paint13_linear_64_1491" x1="340.302" y1="290.277" x2="340.302" y2="193.373" gradientUnits="userSpaceOnUse">
            <stop offset="0.0108" stop-color="#70E8FC"/>
            <stop offset="0.1484" stop-color="#5AB5CE"/>
            <stop offset="0.3028" stop-color="#4483A2"/>
            <stop offset="0.4559" stop-color="#325A7E"/>
            <stop offset="0.6045" stop-color="#243A61"/>
            <stop offset="0.7474" stop-color="#1B234D"/>
            <stop offset="0.882" stop-color="#151541"/>
            <stop offset="1" stop-color="#13113D"/>
        </linearGradient>
        <linearGradient id="paint14_linear_64_1491" x1="322.937" y1="122.906" x2="402.95" y2="122.906" gradientUnits="userSpaceOnUse">
            <stop stop-color="#110463"/>
            <stop offset="0.15" stop-color="#4160FF"/>
            <stop offset="0.535" stop-color="#00178F"/>
            <stop offset="1" stop-color="#87DBFF"/>
        </linearGradient>
        <linearGradient id="paint15_linear_64_1491" x1="359.027" y1="122.462" x2="360.619" y2="142.021" gradientUnits="userSpaceOnUse">
            <stop stop-color="#87DBFF"/>
            <stop offset="0.2204" stop-color="#87DBFF"/>
            <stop offset="0.4892" stop-color="#87DBFF"/>
            <stop offset="0.7742" stop-color="#DEFAFC"/>
            <stop offset="1" stop-color="#DEFAFC"/>
        </linearGradient>
        <linearGradient id="paint16_linear_64_1491" x1="592.644" y1="266.029" x2="641.673" y2="256.594" gradientUnits="userSpaceOnUse">
            <stop stop-color="#DEFAFC"/>
            <stop offset="0.1651" stop-color="#008FCC"/>
            <stop offset="0.4284" stop-color="#008FCC"/>
            <stop offset="0.7551" stop-color="#87DBFF"/>
            <stop offset="1" stop-color="#87DBFF"/>
        </linearGradient>
        <linearGradient id="paint17_linear_64_1491" x1="598.041" y1="264.222" x2="634.543" y2="257.198" gradientUnits="userSpaceOnUse">
            <stop stop-color="#00178F"/>
            <stop offset="0.2262" stop-color="#87DBFF"/>
            <stop offset="0.587" stop-color="#008FCC"/>
            <stop offset="1" stop-color="#75CBF0"/>
        </linearGradient>
        <linearGradient id="paint18_linear_64_1491" x1="361.984" y1="123.841" x2="361.984" y2="88.4382" gradientUnits="userSpaceOnUse">
            <stop offset="0.0108" stop-color="#25BFEC"/>
            <stop offset="0.0453" stop-color="#23B4E1"/>
            <stop offset="0.2186" stop-color="#1E82AF"/>
            <stop offset="0.3902" stop-color="#1A5986"/>
            <stop offset="0.5567" stop-color="#173A66"/>
            <stop offset="0.7168" stop-color="#14234F"/>
            <stop offset="0.8678" stop-color="#131541"/>
            <stop offset="1" stop-color="#13113D"/>
        </linearGradient>
    </defs>
</svg>
