<?xml version="1.0" encoding="UTF-8"?><svg id="Capa_1" xmlns="http://www.w3.org/2000/svg" viewBox="0 0 2720.14 479.799"><defs><style>.cls-1{fill-rule:evenodd;}.cls-1,.cls-2{fill:#0b0b0b;stroke-width:0px;}</style></defs><path class="cls-2" d="m792.733,31.168c24.509,16.063,40.778,37.401,48.815,64.02l-70.36,20.918c-3.809-11.408-10.994-20.285-21.557-26.625-10.994-6.34-24.514-9.504-40.565-9.504-19.445,0-35.082,4.861-46.911,14.578-12.259,9.728-18.381,22.408-18.381,38.034,0,12.68,4.441,23.041,13.313,31.061,11.408,10.574,30.209,18.174,56.415,22.822,42.676,7.186,77.546,22.61,104.591,46.272,27.04,23.674,40.571,54.73,40.571,93.183,0,39.305-14.372,72.483-43.103,99.529-28.742,27.045-64.244,40.565-106.495,40.565-33.391,0-63.18-9.084-89.38-27.258-26.625-18.163-44.374-41.837-53.245-70.994l69.722-20.285c4.648,13.946,13.52,24.94,26.625,32.965,13.52,8.457,28.944,12.68,46.278,12.68,21.551,0,39.932-6.34,55.149-19.02,14.36-12.679,21.557-28.736,21.557-48.182,0-17.322-6.973-31.901-20.918-43.74-14.803-12.255-34.87-20.487-60.218-24.721-39.305-7.18-71.425-20.913-96.353-41.198-24.939-20.286-37.401-48.177-37.401-83.673,0-17.749,3.377-34.119,10.143-49.123,6.754-14.998,16.69-28.412,29.795-40.252,26.194-24.088,58.947-36.135,98.252-36.135,32.108,0,59.999,8.037,83.667,24.094l-.006-.011Z"/><path class="cls-2" d="m1177.49,11.515c14.8,2.957,28.95,7.606,42.47,13.94,13.52,5.925,26.31,13.105,38.36,21.557,12.04,8.462,23.14,18.174,33.28,29.157l-51.98,51.979c-29.16-32.108-65.29-48.176-108.4-48.176-42.69,0-78.19,15.211-106.49,45.634-13.95,15.216-24.52,32.119-31.697,50.713-7.191,18.6-10.781,38.667-10.781,60.223s3.59,41.63,10.781,60.218c7.177,18.6,17.747,35.497,31.697,50.713,28.3,30.429,63.8,45.64,106.49,45.64,43.1,0,79.23-16.057,108.4-48.182l51.34,51.346c-10.14,10.994-21.13,20.711-32.96,29.162-11.84,8.457-24.72,15.845-38.66,22.184-27.05,12.255-56.42,18.382-88.11,18.382-63.82,0-117.07-22.599-159.743-67.824-20.285-22.397-35.715-47.011-46.272-73.849-10.574-26.833-15.85-56.101-15.85-87.795s5.276-60.957,15.85-87.795c10.557-26.833,26.194-51.447,46.905-73.85,42.25-45.214,95.29-67.829,159.11-67.829,16.05,0,31.47,1.49,46.27,4.441l-.01.011Z"/><path class="cls-2" d="m1359.43,14.679h72.9v443.725h-72.9V14.679Z"/><path class="cls-2" d="m340.775,479.799h-194.414c-41.534,0-75.204-33.671-75.204-75.205v-64.413h65.975l1.232,55.609c0,9.28,7.521,16.802,16.802,16.802h176.805c9.28,0,16.802-7.522,16.802-16.802v-55.609h67.207v64.413c0,41.534-33.671,75.205-75.205,75.205Z"/><path class="cls-2" d="m415.98,139.619h-67.207v-55.609c0-9.28-7.522-16.802-16.802-16.802h-176.805c-9.281,0-16.802,7.522-16.802,16.802v55.609h-67.207v-64.407C71.157,33.672,104.827.001,146.367.001h194.408C382.309.001,415.986,33.672,415.986,75.212l-.006,64.407Z"/><path class="cls-2" d="m104.559,302.999c-12.568,0-24.385-4.895-33.262-13.783l-57.513-57.513C4.257,222.194-.682,209.307.079,195.731c.678-12.109,6.508-23.36,15.088-31.935l56.135-56.129c9.515-9.521,22.408-14.461,35.984-13.699,12.103.678,23.343,6.508,31.918,15.082l55.541,55.541c18.701,18.695,18.701,49.011,0,67.712l-56.924,56.924c-8.877,8.883-20.689,13.778-33.257,13.778l-.005-.006Zm-35.519-95.961l26.928,26.928c4.744,4.744,12.439,4.744,17.183,0l26.928-26.928c4.743-4.743,4.743-12.439,0-17.182l-26.928-26.928c-4.744-4.744-12.439-4.744-17.183,0l-26.928,26.928c-4.744,4.743-4.744,12.439,0,17.182Z"/><path class="cls-2" d="m382.046,387.647c-12.568,0-24.385-4.895-33.262-13.783l-57.513-57.513c-9.526-9.515-14.466-22.402-13.704-35.978.677-12.109,6.508-23.36,15.088-31.935l56.135-56.129c9.515-9.521,22.408-14.461,35.983-13.699,12.103.678,23.344,6.508,31.918,15.082l55.541,55.542c18.701,18.694,18.701,49.01,0,67.711l-56.924,56.924c-8.877,8.883-20.689,13.778-33.256,13.778h-.006Zm-35.519-95.961l26.928,26.928c4.743,4.743,12.439,4.743,17.182,0l26.928-26.928c4.744-4.744,4.744-12.439,0-17.183l-26.928-26.927c-4.743-4.744-12.439-4.744-17.182,0l-26.928,26.927c-4.744,4.744-4.744,12.439,0,17.183Z"/><path class="cls-2" d="m1959.19,19.203c7.42,0,13.83,1.804,19.25,5.413,5.61,3.609,9.37,8.471,11.27,14.585l-13.98,4.21c-1.1-3.108-3.06-5.463-5.87-7.067-2.8-1.704-6.36-2.556-10.67-2.556-5.21,0-9.37,1.303-12.48,3.91-3.31,2.707-4.96,6.215-4.96,10.526,0,3.408,1.2,6.215,3.61,8.42,2.9,2.807,7.76,4.812,14.58,6.015,9.92,1.704,18.09,5.363,24.51,10.977,6.32,5.614,9.47,12.831,9.47,21.653,0,9.222-3.36,16.991-10.07,23.306-6.62,6.315-14.84,9.473-24.66,9.473-7.72,0-14.59-2.055-20.6-6.165-6.12-4.21-10.23-9.673-12.33-16.39l13.83-4.21c1.31,3.809,3.66,6.767,7.07,8.872,3.51,2.205,7.52,3.308,12.03,3.308,5.71,0,10.52-1.704,14.43-5.113,3.91-3.508,5.87-7.869,5.87-13.081,0-4.612-1.91-8.521-5.72-11.729-3.91-3.308-8.97-5.513-15.18-6.616-9.22-1.604-16.74-4.761-22.56-9.473-5.81-4.711-8.72-11.127-8.72-19.247,0-4.11.75-7.869,2.26-11.277,1.6-3.508,3.91-6.666,6.91-9.473,6.02-5.513,13.59-8.27,22.71-8.27Z"/><path class="cls-2" d="m2079.17,94.686h-56.83c.6,2.707,1.45,5.163,2.55,7.368,1.21,2.205,2.76,4.16,4.66,5.864,4.21,3.709,9.23,5.564,15.04,5.564,8.52,0,15.19-2.406,20-7.218l10.22,10.375c-7.61,7.619-17.69,11.428-30.22,11.428-10.83,0-19.9-3.809-27.21-11.428-7.32-7.718-10.98-17.041-10.98-27.967,0-11.027,3.56-20.349,10.67-27.968,7.22-7.619,16.19-11.428,26.92-11.428,10.53,0,19,3.759,25.41,11.277,6.52,7.418,9.77,16.791,9.77,28.118v6.014Zm-35.33-31.426c-5.71,0-10.58,1.854-14.59,5.563-3.81,3.509-6.16,7.969-7.06,13.382h41.2c-.91-5.614-2.96-10.125-6.17-13.533-3.31-3.609-7.77-5.413-13.38-5.413Z"/><path class="cls-2" d="m2126.22,49.276c10.63,0,19.55,3.809,26.77,11.428l-10.08,10.375c-4.51-4.812-10.07-7.217-16.69-7.217-6.82,0-12.38,2.356-16.69,7.067-4.31,4.812-6.47,10.726-6.47,17.743,0,6.916,2.16,12.831,6.47,17.743,4.31,4.711,9.87,7.067,16.69,7.067,6.62,0,12.18-2.406,16.69-7.218l10.08,10.375c-7.22,7.619-16.14,11.428-26.77,11.428-10.73,0-19.7-3.809-26.92-11.428-7.11-7.718-10.67-17.041-10.67-27.967,0-11.027,3.56-20.349,10.67-27.968,7.22-7.619,16.19-11.428,26.92-11.428Z"/><path class="cls-2" d="m2164.9,51.08h14.58v40.148c0,6.716,1.81,12.129,5.41,16.239,3.51,4.01,8.02,6.015,13.54,6.015,5.31,0,9.72-2.005,13.23-6.015,3.61-4.11,5.41-9.523,5.41-16.239v-40.148h14.59v39.696c0,11.026-3.21,19.998-9.63,26.915-6.51,6.917-14.38,10.375-23.6,10.375-9.43,0-17.4-3.458-23.91-10.375-6.42-6.917-9.62-15.889-9.62-26.915v-39.696Z"/><path class="cls-2" d="m2249.37,51.08h13.98v10.826c.31-.401.66-.802,1.06-1.203.4-.501.8-.952,1.2-1.353,2.51-2.506,5.31-4.611,8.42-6.315,4.81-2.506,10.33-3.759,16.54-3.759v14.585c-7.12,0-13.18,2.256-18.19,6.766-5.12,4.611-7.92,10.526-8.42,17.743v37.892h-14.59V51.08Z"/><path class="cls-2" d="m2370.51,94.686h-56.84c.6,2.707,1.45,5.163,2.55,7.368,1.21,2.205,2.76,4.16,4.67,5.864,4.21,3.709,9.22,5.564,15.03,5.564,8.52,0,15.19-2.406,20-7.218l10.23,10.375c-7.62,7.619-17.7,11.428-30.23,11.428-10.82,0-19.9-3.809-27.21-11.428-7.32-7.718-10.98-17.041-10.98-27.967,0-11.027,3.56-20.349,10.68-27.968,7.21-7.619,16.18-11.428,26.91-11.428,10.53,0,19,3.759,25.41,11.277,6.52,7.418,9.78,16.791,9.78,28.118v6.014Zm-35.34-31.426c-5.71,0-10.58,1.854-14.59,5.563-3.8,3.509-6.16,7.969-7.06,13.382h41.2c-.9-5.614-2.96-10.125-6.17-13.533-3.31-3.609-7.77-5.413-13.38-5.413Z"/><path class="cls-2" d="m1977.53,185.87c3.81,0,7.47.351,10.98,1.052,3.51.702,6.87,1.805,10.07,3.308,3.21,1.504,6.22,3.258,9.03,5.263,2.8,2.005,5.41,4.311,7.82,6.917l-10.38,10.525c-7.32-8.32-16.49-12.48-27.52-12.48-10.82,0-19.74,3.86-26.76,11.578-3.61,3.91-6.32,8.22-8.12,12.932-1.81,4.711-2.71,9.823-2.71,15.337s.9,10.626,2.71,15.337c1.8,4.711,4.51,9.022,8.12,12.931,7.02,7.719,15.94,11.578,26.76,11.578,11.03,0,20.2-4.11,27.52-12.33l10.22,10.225c-2.3,2.707-4.86,5.062-7.66,7.067-2.81,2.005-5.87,3.759-9.18,5.263-6.41,2.907-13.38,4.361-20.9,4.361-15.03,0-27.51-5.313-37.44-15.939-4.81-5.313-8.47-11.177-10.97-17.593-2.41-6.415-3.61-13.382-3.61-20.9,0-7.619,1.2-14.586,3.61-20.901,2.5-6.415,6.21-12.23,11.12-17.442,9.83-10.726,22.26-16.089,37.29-16.089Z"/><path class="cls-2" d="m2063.23,230.528c-6.82,0-12.38,2.356-16.69,7.067-2.11,2.406-3.71,5.113-4.82,8.12-1.1,2.907-1.65,6.115-1.65,9.623,0,6.917,2.15,12.831,6.47,17.743,4.31,4.712,9.87,7.067,16.69,7.067s12.38-2.355,16.69-7.067c2.2-2.406,3.81-5.062,4.81-7.969,1.1-3.007,1.65-6.265,1.65-9.774,0-7.017-2.15-12.931-6.46-17.743-4.31-4.711-9.88-7.067-16.69-7.067Zm0-14.585c10.72,0,19.69,3.809,26.91,11.427,7.12,7.619,10.68,16.941,10.68,27.968,0,10.927-3.56,20.249-10.68,27.968-7.22,7.618-16.19,11.428-26.91,11.428s-19.7-3.81-26.92-11.428c-7.12-7.719-10.68-17.041-10.68-27.968,0-11.027,3.56-20.349,10.68-27.968,7.22-7.618,16.19-11.427,26.92-11.427Z"/><path class="cls-2" d="m2182.8,292.929h-14.58v-40.147c0-6.817-1.76-12.23-5.27-16.239-3.6-4.01-8.12-6.015-13.53-6.015s-9.87,2.005-13.38,6.015c-3.61,4.11-5.41,9.523-5.41,16.239v40.147h-14.59v-75.182h13.98v8.721c.2-.501.46-.902.76-1.203.4-.401.75-.751,1.05-1.052,5.01-5.514,11.48-8.27,19.4-8.27,9.22,0,16.79,3.408,22.7,10.225,2.91,3.408,5.11,7.417,6.62,12.029,1.5,4.511,2.25,9.523,2.25,15.036v39.696Z"/><path class="cls-2" d="m2205.74,194.29h14.58v23.457h21.66v14.435h-21.66v29.02c0,4.812,1.66,8.872,4.97,12.18,3.3,3.308,7.36,4.962,12.18,4.962h4.36v14.585h-4.36c-8.72,0-16.19-3.107-22.41-9.322-6.21-6.215-9.32-13.683-9.32-22.405v-29.02h-12.63v-14.435h12.63v-23.457Z"/><path class="cls-2" d="m2255.98,217.747h13.98v10.826c.3-.401.65-.802,1.06-1.203.4-.501.8-.952,1.2-1.353,2.5-2.506,5.31-4.611,8.42-6.315,4.81-2.506,10.32-3.759,16.54-3.759v14.585c-7.12,0-13.18,2.256-18.2,6.766-5.11,4.612-7.91,10.526-8.42,17.743v37.892h-14.58v-75.182Z"/><path class="cls-2" d="m2365.84,217.747h13.53v75.182h-13.53v-10.224c-.3.501-.66,1.002-1.06,1.503-.3.501-.65.952-1.05,1.353-5.61,6.115-13.08,9.173-22.4,9.173-10.73,0-19.55-3.81-26.47-11.428-7.01-7.719-10.52-17.041-10.52-27.968,0-11.027,3.51-20.349,10.52-27.968,6.92-7.618,15.74-11.427,26.47-11.427,9.32,0,16.79,3.157,22.4,9.473.5.401.9.852,1.2,1.353.31.501.61.952.91,1.353v-10.375Zm-23.61,12.631c-6.82,0-12.38,2.406-16.69,7.217-4.41,4.812-6.62,10.726-6.62,17.743s2.21,12.932,6.62,17.743c4.31,4.812,9.87,7.218,16.69,7.218,6.72,0,12.13-2.406,16.24-7.218,2.1-2.406,3.66-5.062,4.66-7.969,1.1-3.007,1.65-6.265,1.65-9.774,0-3.609-.55-6.866-1.65-9.773-1-2.908-2.56-5.564-4.66-7.97-4.11-4.811-9.52-7.217-16.24-7.217Z"/><path class="cls-2" d="m2432.09,215.943c10.62,0,19.55,3.809,26.76,11.427l-10.07,10.376c-4.51-4.812-10.08-7.218-16.69-7.218-6.82,0-12.38,2.356-16.69,7.067-4.31,4.812-6.47,10.726-6.47,17.743,0,6.917,2.16,12.831,6.47,17.743,4.31,4.712,9.87,7.067,16.69,7.067,6.61,0,12.18-2.406,16.69-7.217l10.07,10.375c-7.21,7.618-16.14,11.428-26.76,11.428-10.73,0-19.7-3.81-26.92-11.428-7.11-7.719-10.67-17.041-10.67-27.968,0-11.027,3.56-20.349,10.67-27.968,7.22-7.618,16.19-11.427,26.92-11.427Z"/><path class="cls-2" d="m2477.98,194.29h14.59v23.457h21.65v14.435h-21.65v29.02c0,4.812,1.65,8.872,4.96,12.18,3.31,3.308,7.37,4.962,12.18,4.962h4.36v14.585h-4.36c-8.72,0-16.19-3.107-22.41-9.322-6.21-6.215-9.32-13.683-9.32-22.405v-29.02h-12.63v-14.435h12.63v-23.457Z"/><path class="cls-2" d="m1932.27,459.596v-105.255h14.44v105.255h-14.44Z"/><path class="cls-2" d="m2036.11,459.596h-14.59v-40.147c0-6.817-1.75-12.23-5.26-16.24-3.61-4.009-8.12-6.014-13.53-6.014s-9.88,2.005-13.38,6.014c-3.61,4.11-5.42,9.523-5.42,16.24v40.147h-14.58v-75.182h13.98v8.721c.2-.501.45-.902.75-1.203.4-.401.75-.752,1.05-1.053,5.02-5.513,11.48-8.27,19.4-8.27,9.22,0,16.79,3.409,22.71,10.225,2.9,3.408,5.11,7.418,6.61,12.029,1.51,4.511,2.26,9.523,2.26,15.037v39.696Z"/><path class="cls-2" d="m2059.05,360.957h14.58v23.457h21.65v14.435h-21.65v29.02c0,4.812,1.66,8.872,4.96,12.18,3.31,3.308,7.37,4.962,12.18,4.962h4.36v14.585h-4.36c-8.72,0-16.19-3.108-22.4-9.323-6.22-6.215-9.32-13.683-9.32-22.404v-29.02h-12.63v-14.435h12.63v-23.457Z"/><path class="cls-2" d="m2177.12,428.019h-56.84c.6,2.707,1.45,5.163,2.56,7.368,1.2,2.206,2.75,4.16,4.66,5.864,4.21,3.709,9.22,5.564,15.03,5.564,8.52,0,15.19-2.406,20-7.218l10.23,10.376c-7.62,7.618-17.7,11.427-30.23,11.427-10.82,0-19.89-3.809-27.21-11.427-7.32-7.719-10.98-17.042-10.98-27.968,0-11.027,3.56-20.349,10.68-27.968,7.21-7.618,16.19-11.428,26.91-11.428,10.53,0,19,3.759,25.41,11.278,6.52,7.418,9.78,16.79,9.78,28.118v6.014Zm-35.34-31.426c-5.71,0-10.57,1.855-14.58,5.564-3.81,3.508-6.17,7.969-7.07,13.382h41.2c-.9-5.613-2.96-10.124-6.17-13.533-3.3-3.608-7.76-5.413-13.38-5.413Z"/><path class="cls-2" d="m2190.78,384.414h13.99v10.826c.3-.401.65-.802,1.05-1.203.4-.501.8-.952,1.2-1.353,2.51-2.506,5.31-4.611,8.42-6.316,4.81-2.506,10.33-3.759,16.54-3.759v14.586c-7.12,0-13.18,2.255-18.19,6.766-5.11,4.611-7.92,10.526-8.42,17.743v37.892h-14.59v-75.182Z"/><path class="cls-2" d="m2300.64,384.414h13.53v75.182h-13.53v-10.225c-.3.501-.65,1.003-1.05,1.504-.3.501-.65.952-1.06,1.353-5.61,6.115-13.08,9.172-22.4,9.172-10.73,0-19.55-3.809-26.46-11.427-7.02-7.719-10.53-17.042-10.53-27.968,0-11.027,3.51-20.349,10.53-27.968,6.91-7.618,15.73-11.428,26.46-11.428,9.32,0,16.79,3.158,22.4,9.473.51.401.91.852,1.21,1.354.3.501.6.952.9,1.353v-10.375Zm-23.61,12.63c-6.81,0-12.38,2.406-16.69,7.218-4.41,4.812-6.61,10.726-6.61,17.743s2.2,12.931,6.61,17.743c4.31,4.812,9.88,7.217,16.69,7.217,6.72,0,12.13-2.405,16.24-7.217,2.11-2.406,3.66-5.062,4.66-7.969,1.11-3.008,1.66-6.266,1.66-9.774,0-3.609-.55-6.867-1.66-9.774-1-2.907-2.55-5.563-4.66-7.969-4.11-4.812-9.52-7.218-16.24-7.218Z"/><path class="cls-2" d="m2366.89,382.609c10.63,0,19.55,3.81,26.77,11.428l-10.08,10.375c-4.51-4.811-10.07-7.217-16.69-7.217-6.82,0-12.38,2.355-16.69,7.067-4.31,4.812-6.46,10.726-6.46,17.743,0,6.917,2.15,12.831,6.46,17.743,4.31,4.711,9.87,7.067,16.69,7.067,6.62,0,12.18-2.406,16.69-7.218l10.08,10.376c-7.22,7.618-16.14,11.427-26.77,11.427-10.72,0-19.7-3.809-26.91-11.427-7.12-7.719-10.68-17.042-10.68-27.968,0-11.027,3.56-20.349,10.68-27.968,7.21-7.618,16.19-11.428,26.91-11.428Z"/><path class="cls-2" d="m2412.78,360.957h14.59v23.457h21.65v14.435h-21.65v29.02c0,4.812,1.65,8.872,4.96,12.18,3.31,3.308,7.37,4.962,12.18,4.962h4.36v14.585h-4.36c-8.72,0-16.19-3.108-22.4-9.323-6.22-6.215-9.33-13.683-9.33-22.404v-29.02h-12.63v-14.435h12.63v-23.457Z"/><path class="cls-2" d="m2464.23,459.596v-75.182h14.43v75.182h-14.43Zm16.39-99.692c0,2.506-.86,4.612-2.56,6.316-1.8,1.804-3.96,2.706-6.47,2.706s-4.61-.902-6.31-2.706c-1.81-1.704-2.71-3.81-2.71-6.316s.9-4.661,2.71-6.465c1.7-1.704,3.81-2.556,6.31-2.556s4.67.852,6.47,2.556c1.7,1.804,2.56,3.959,2.56,6.465Z"/><path class="cls-2" d="m2532.97,397.195c-6.82,0-12.38,2.355-16.69,7.067-2.11,2.406-3.71,5.112-4.81,8.12-1.11,2.907-1.66,6.114-1.66,9.623,0,6.917,2.16,12.831,6.47,17.743,4.31,4.711,9.87,7.067,16.69,7.067s12.38-2.356,16.69-7.067c2.2-2.406,3.81-5.062,4.81-7.969,1.1-3.008,1.65-6.266,1.65-9.774,0-7.017-2.15-12.931-6.46-17.743-4.31-4.712-9.88-7.067-16.69-7.067Zm0-14.586c10.72,0,19.7,3.81,26.91,11.428,7.12,7.619,10.68,16.941,10.68,27.968,0,10.926-3.56,20.249-10.68,27.968-7.21,7.618-16.19,11.427-26.91,11.427s-19.7-3.809-26.92-11.427c-7.11-7.719-10.67-17.042-10.67-27.968,0-11.027,3.56-20.349,10.67-27.968,7.22-7.618,16.19-11.428,26.92-11.428Z"/><path class="cls-2" d="m2652.54,459.596h-14.58v-40.147c0-6.817-1.76-12.23-5.26-16.24-3.61-4.009-8.12-6.014-13.54-6.014s-9.87,2.005-13.38,6.014c-3.61,4.11-5.41,9.523-5.41,16.24v40.147h-14.59v-75.182h13.99v8.721c.2-.501.45-.902.75-1.203.4-.401.75-.752,1.05-1.053,5.01-5.513,11.48-8.27,19.4-8.27,9.22,0,16.79,3.409,22.7,10.225,2.91,3.408,5.11,7.418,6.62,12.029,1.5,4.511,2.25,9.523,2.25,15.037v39.696Z"/><path class="cls-2" d="m2717.43,397.345l-13.68,4.812c-.6-1.805-1.85-3.308-3.76-4.511-2-1.103-4.26-1.654-6.77-1.654-3.3,0-5.86.852-7.66,2.556-1.81,1.704-2.71,3.759-2.71,6.165.1,3.007,2.46,5.363,7.07,7.067,1.1.301,2.2.652,3.3,1.053,1.11.3,2.26.601,3.46.902,7.22,1.804,12.68,4.461,16.39,7.969,4.71,4.311,7.07,9.623,7.07,15.939,0,7.217-2.81,13.081-8.42,17.592-5.11,4.11-11.48,6.165-19.1,6.165-6.21,0-11.63-1.453-16.24-4.36-4.71-2.807-8.17-6.717-10.37-11.729l13.68-4.962c2.41,5.012,6.62,7.519,12.63,7.519,3.91,0,7.07-1.053,9.48-3.158,2.4-2.105,3.6-4.611,3.6-7.518-.1-3.308-2.75-5.965-7.97-7.97-1.1-.601-2.25-1.102-3.45-1.503-1.21-.401-2.56-.802-4.06-1.203-3.21-.702-6.17-1.754-8.88-3.158-2.6-1.403-4.86-3.007-6.76-4.812-4.01-3.608-6.02-8.27-6.02-13.983,0-6.516,2.41-11.829,7.22-15.939,4.71-4.01,10.58-6.015,17.59-6.015,6.12,0,11.28,1.304,15.49,3.91,4.11,2.606,7.07,6.215,8.87,10.826Z"/><path class="cls-1" d="m1684.34,459.596V25.253h15.16v434.343h-15.16Z"/></svg>