<svg width="32" height="33" viewBox="0 0 32 33" fill="none" xmlns="http://www.w3.org/2000/svg">
    <g clip-path="url(#clip0_294_18)">
        <path d="M19.5149 12.7349C18.8369 12.7349 18.3349 12.9059 17.9419 13.1219C17.8789 12.8979 17.6719 12.7339 17.4279 12.7829H14.4439C14.1489 12.7339 13.9099 12.9729 14.0009 13.2829V24.2829C13.9099 24.5629 14.1489 24.8029 14.4439 24.7829H17.4279C17.7229 24.8029 17.9619 24.5629 17.9619 24.2679L17.9609 17.6199C17.9599 17.6169 17.9489 17.2989 18.1499 17.0799C18.3109 16.9059 18.5879 16.8169 18.9709 16.8169C19.6089 16.8169 19.8929 17.0779 19.9989 17.6619V24.2679C19.8939 24.5629 20.1329 24.8029 20.4279 24.7829H23.5729C23.8679 24.8029 24.1069 24.5629 24.0009 24.2679V17.4399C24.1059 13.9679 21.6329 12.7349 19.5149 12.7349ZM23.0379 23.7829H20.9619V17.6619C20.9619 16.4809 20.1989 15.7489 18.9719 15.7489C18.2779 15.7489 17.7379 15.9529 17.3659 16.3549C16.8489 16.9149 16.8889 17.6249 16.9999 17.7829V23.7829H14.9779V13.8029H16.8939V14.1389C16.8931 14.239 16.9206 14.3373 16.9732 14.4225C17.0257 14.5076 17.1013 14.5763 17.1911 14.6204C17.2809 14.6646 17.3814 14.6826 17.4809 14.6722C17.5805 14.6618 17.6751 14.6236 17.7539 14.5619L17.8939 14.4539C18.2989 14.1349 18.7179 13.8039 19.5159 13.8039C20.3419 13.8039 23.0389 14.0669 23.0389 17.4409L23.0379 23.7829ZM10.9999 7.7489C9.8779 7.7489 8.9659 8.6609 8.9659 9.7829C8.9659 10.9049 9.8779 11.8169 10.9999 11.8169C12.1219 11.8169 13.0339 10.9049 13.0339 9.7829C13.0339 8.6609 12.1219 7.7489 10.9999 7.7489ZM10.9999 10.7489C10.4679 10.7489 10.0339 10.3149 10.0339 9.7829C10.0339 9.2509 10.4679 8.8169 10.9999 8.8169C11.5319 8.8169 11.9659 9.2509 11.9659 9.7829C11.9659 10.3149 11.5319 10.7489 10.9999 10.7489ZM12.4279 12.7339H9.4599C9.1649 12.7339 8.9259 12.9729 8.9999 13.2829V24.2829C8.9259 24.5629 9.1649 24.8029 9.4599 24.7829H12.4279C12.7229 24.8029 12.9619 24.5629 12.9619 24.2679V13.2679C12.9619 13.1263 12.9056 12.9905 12.8055 12.8903C12.7054 12.7902 12.5695 12.7339 12.4279 12.7339ZM11.9999 23.7829H9.99391V13.8029H11.9999V23.7829Z" fill="white"/>
        </g>
    <defs>
        <clipPath id="clip0_294_18">
            <rect width="32" height="32" fill="white" transform="translate(0 0.782959)"/>
        </clipPath>
    </defs>
</svg>
