<svg width="191" height="25" viewBox="0 0 191 25" fill="none" xmlns="http://www.w3.org/2000/svg">
    <path d="M160.024 12.2605C158.685 11.3473 157.163 10.7386 155.762 9.94712C154.849 9.39921 153.875 8.97305 153.084 8.30338C151.744 7.20755 151.988 5.0159 153.449 4.04183C155.458 2.70249 158.867 3.43305 159.233 6.23349C159.233 6.29437 159.293 6.35525 159.354 6.35525H162.459C162.52 6.35525 162.581 6.29437 162.581 6.23349C162.398 4.28535 161.668 2.7025 160.328 1.66755C159.05 0.693482 157.528 0.145569 155.945 0.145569C147.787 0.145569 147.057 8.72954 151.44 11.4691C151.927 11.7735 156.249 13.9652 157.771 14.8783C159.293 15.7915 159.78 17.557 159.111 18.8964C158.502 20.1139 156.98 20.9663 155.397 20.9054C153.692 20.7836 152.353 19.8704 151.927 18.4702C151.866 18.2267 151.805 17.7397 151.805 17.4961C151.805 17.4353 151.744 17.3744 151.684 17.3744H148.335C148.274 17.3744 148.213 17.4353 148.213 17.4961C148.213 19.9313 148.822 21.2707 150.466 22.4882C151.988 23.6449 153.692 24.132 155.397 24.132C159.963 24.132 162.337 21.575 162.764 18.8964C163.129 16.2177 162.337 13.8434 160.024 12.2605Z" fill="#161616"/>
    <path d="M17.0187 0.571777H11.9657C11.9048 0.571777 11.8439 0.63266 11.8439 0.63266L9.10436 9.64279C9.04348 9.76454 8.92172 9.76454 8.86084 9.64279L6.12128 0.63266C6.12128 0.571781 6.0604 0.571777 5.99952 0.571777H0.885665C0.824786 0.571777 0.763908 0.632655 0.763908 0.693534V23.7668C0.763908 23.8276 0.824786 23.8885 0.885665 23.8885H4.23402C4.2949 23.8885 4.35578 23.8276 4.35578 23.7668V6.23355C4.35578 6.11179 4.53842 6.0509 4.5993 6.17266L7.33886 15.2437L7.5215 15.9133C7.5215 15.9742 7.58238 15.9742 7.64326 15.9742H10.2002C10.2611 15.9742 10.3219 15.9133 10.3219 15.9133L10.5046 15.2437L13.2441 6.17266C13.305 6.0509 13.4877 6.05091 13.4877 6.23355V23.7668C13.4877 23.8276 13.5485 23.8885 13.6094 23.8885H16.9578C17.0187 23.8885 17.0795 23.8276 17.0795 23.7668V0.693534C17.1404 0.632655 17.0795 0.571777 17.0187 0.571777Z" fill="#161616"/>
    <path d="M108.885 0.571777C108.824 0.571777 108.764 0.63266 108.764 0.63266L106.024 9.64279C105.963 9.76454 105.841 9.76454 105.78 9.64279L103.041 0.63266C103.041 0.571781 102.98 0.571777 102.919 0.571777H97.8661C97.8053 0.571777 97.7444 0.632655 97.7444 0.693534V23.7668C97.7444 23.8276 97.8053 23.8885 97.8661 23.8885H101.215C101.275 23.8885 101.336 23.8276 101.336 23.7668V6.23355C101.336 6.11179 101.519 6.0509 101.58 6.17266L104.319 15.2437L104.502 15.9133C104.502 15.9742 104.563 15.9742 104.624 15.9742H107.181C107.242 15.9742 107.302 15.9133 107.302 15.9133L107.485 15.2437L110.225 6.17266C110.286 6.0509 110.468 6.05091 110.468 6.23355V23.7668C110.468 23.8276 110.529 23.8885 110.59 23.8885H113.938C113.999 23.8885 114.06 23.8276 114.06 23.7668V0.693534C114.06 0.632655 113.999 0.571777 113.938 0.571777H108.885Z" fill="#161616"/>
    <path d="M65.8435 0.571838H50.0758C50.0149 0.571838 49.954 0.632716 49.954 0.693595V3.55492C49.954 3.6158 50.0149 3.67667 50.0758 3.67667H56.1637V23.7668C56.1637 23.8277 56.2246 23.8886 56.2854 23.8886H59.6338C59.6947 23.8886 59.7556 23.8277 59.7556 23.7668V3.67667H65.8435C65.9044 3.67667 65.9652 3.6158 65.9652 3.55492V0.693595C65.9652 0.632716 65.9044 0.571838 65.8435 0.571838Z" fill="#161616"/>
    <path d="M77.5323 13.6608L79.9675 4.65064C80.0284 4.52888 80.1501 4.52888 80.211 4.65064L82.6462 13.6608C82.6462 13.7217 82.5853 13.8434 82.5244 13.8434H77.6541C77.5932 13.8434 77.5323 13.7217 77.5323 13.6608ZM85.5075 23.8885H88.5515C88.6123 23.8885 88.6732 23.8276 88.6732 23.7058L82.4027 0.571738C82.4027 0.510859 82.3418 0.510864 82.2809 0.510864H77.8976C77.8367 0.510864 77.7758 0.571738 77.7758 0.571738L71.5053 23.7058C71.5053 23.7667 71.5662 23.8885 71.627 23.8885H74.671C74.7319 23.8885 74.7928 23.8276 74.7928 23.8276L76.6191 17.07C76.6191 17.0091 76.68 17.0091 76.7409 17.0091H83.4376C83.4985 17.0091 83.5594 17.07 83.5594 17.07L85.3857 23.8276C85.4466 23.8276 85.5075 23.8885 85.5075 23.8885Z" fill="#161616"/>
    <path d="M129.341 13.6608L131.776 4.65064C131.837 4.52888 131.959 4.52888 132.019 4.65064L134.455 13.6608C134.455 13.7217 134.394 13.8434 134.333 13.8434H129.462C129.402 13.8434 129.341 13.7217 129.341 13.6608ZM137.316 23.8885H140.36C140.421 23.8885 140.482 23.8276 140.482 23.7058L134.211 0.571738C134.211 0.510859 134.15 0.510864 134.089 0.510864H129.706C129.645 0.510864 129.584 0.571738 129.584 0.571738L123.314 23.7058C123.314 23.7667 123.375 23.8885 123.435 23.8885H126.479C126.54 23.8885 126.601 23.8276 126.601 23.8276L128.428 17.07C128.428 17.0091 128.488 17.0091 128.549 17.0091H135.246C135.307 17.0091 135.368 17.07 135.368 17.07L137.194 23.8276C137.255 23.8276 137.255 23.8885 137.316 23.8885Z" fill="#161616"/>
    <path d="M30.7164 20.4793V13.2956C30.7164 13.2347 30.7773 13.1738 30.8382 13.1738H39.7266C39.7874 13.1738 39.8483 13.1129 39.8483 13.0521V10.1907C39.8483 10.1298 39.7874 10.069 39.7266 10.069H30.8382C30.7773 10.069 30.7164 10.0081 30.7164 9.94721V3.85929C30.7164 3.79841 30.7773 3.73752 30.8382 3.73752H40.9441C41.005 3.73752 41.0659 3.67666 41.0659 3.61578V0.754447C41.0659 0.693568 41.005 0.63269 40.9441 0.63269H27.2463C27.1854 0.63269 27.1246 0.693568 27.1246 0.754447V23.8277C27.1246 23.8885 27.1854 23.9494 27.2463 23.9494H41.3703C41.4312 23.9494 41.492 23.8885 41.492 23.8277V20.7837C41.492 20.7228 41.4312 20.662 41.3703 20.662H30.8382C30.7773 20.6011 30.7164 20.5402 30.7164 20.4793Z" fill="#161616"/>
    <path d="M190.524 23.6451L178.957 11.7127C178.896 11.6519 178.896 11.591 178.957 11.5301L189.367 0.754478C189.428 0.693599 189.367 0.571838 189.306 0.571838H185.045C184.984 0.571838 184.984 0.571842 184.984 0.632721L176.157 9.76459C176.096 9.82547 175.974 9.76461 175.974 9.70373V0.693595C175.974 0.632716 175.913 0.571838 175.852 0.571838H172.504C172.443 0.571838 172.382 0.632716 172.382 0.693595V23.7668C172.382 23.8277 172.443 23.8886 172.504 23.8886H175.852C175.913 23.8886 175.974 23.8277 175.974 23.7668V13.6C175.974 13.4782 176.096 13.4174 176.157 13.5391L186.141 23.8277L186.202 23.8886H190.463C190.524 23.8886 190.585 23.7059 190.524 23.6451Z" fill="#161616"/>
</svg>
