<?xml version="1.0" encoding="UTF-8"?><svg id="Capa_1" xmlns="http://www.w3.org/2000/svg" viewBox="0 0 1500.01 502.469"><defs><style>.cls-1{fill:#4160ff;stroke-width:0px;}</style></defs><path class="cls-1" d="m830.191,32.642c25.667,16.821,42.705,39.168,51.122,67.045l-73.685,21.907c-3.989-11.948-11.514-21.244-22.576-27.884-11.513-6.639-25.672-9.953-42.482-9.953-20.364,0-36.739,5.091-49.127,15.267-12.839,10.188-19.25,23.467-19.25,39.831,0,13.279,4.652,24.13,13.942,32.529,11.948,11.073,31.637,19.032,59.081,23.9,44.693,7.525,81.21,23.678,109.533,48.459,28.317,24.792,42.488,57.315,42.488,97.586,0,41.162-15.05,75.908-45.139,104.231-30.101,28.323-67.28,42.482-111.528,42.482-34.968,0-66.165-9.513-93.603-28.546-27.883-19.021-46.47-43.814-55.761-74.348l73.017-21.244c4.868,14.605,14.158,26.118,27.883,34.523,14.159,8.856,30.312,13.279,48.464,13.279,22.57,0,41.82-6.64,57.755-19.919,15.039-13.278,22.576-30.094,22.576-50.458,0-18.141-7.303-33.409-21.907-45.808-15.502-12.833-36.517-21.455-63.063-25.889-41.162-7.519-74.799-21.901-100.906-43.145-26.117-21.243-39.168-50.452-39.168-87.626,0-18.587,3.537-35.731,10.622-51.444,7.074-15.707,17.479-29.754,31.203-42.153,27.432-25.226,61.732-37.843,102.894-37.843,33.626,0,62.835,8.417,87.621,25.232l-.006-.012Z"/><path class="cls-1" d="m1233.13,12.063c15.49,3.097,30.31,7.965,44.48,14.599,14.16,6.205,27.55,13.725,40.16,22.575,12.61,8.862,24.24,19.033,34.86,30.534l-54.44,54.435c-30.53-33.625-68.37-50.453-113.52-50.453-44.7,0-81.88,15.93-111.52,47.79-14.61,15.936-25.68,33.637-33.19,53.11-7.54,19.478-11.3,40.494-11.3,63.069s3.76,43.596,11.3,63.063c7.51,19.478,18.58,37.174,33.19,53.11,29.64,31.866,66.82,47.796,111.52,47.796,45.14,0,82.98-16.816,113.52-50.459l53.77,53.772c-10.62,11.514-22.13,21.69-34.52,30.541-12.39,8.856-25.89,16.593-40.49,23.232-28.33,12.833-59.08,19.25-92.27,19.25-66.83,0-122.6-23.667-167.29-71.028-21.242-23.456-37.401-49.233-48.457-77.339-11.074-28.101-16.599-58.753-16.599-91.944s5.525-63.837,16.599-91.944c11.056-28.1,27.432-53.878,49.117-77.339,44.25-47.35,99.8-71.034,166.63-71.034,16.81,0,32.96,1.56,48.46,4.651l-.01.012Z"/><path class="cls-1" d="m1423.67,15.375h76.34v464.692h-76.34V15.375Z"/><path class="cls-1" d="m356.878,502.466h-203.6c-43.497,0-78.759-35.262-78.759-78.758v-67.456h69.093l1.29,58.236c0,9.718,7.877,17.595,17.596,17.595h185.16c9.718,0,17.595-7.877,17.595-17.595v-58.236h70.383v67.456c0,43.496-35.262,78.758-78.758,78.758Z"/><path class="cls-1" d="m435.636,146.216h-70.383v-58.236c0-9.719-7.877-17.596-17.596-17.596h-185.159c-9.719,0-17.596,7.877-17.596,17.596v58.236h-70.383v-67.45C74.519,35.264,109.781.002,153.283.002h203.595C400.374.002,435.642,35.264,435.642,78.766l-.006,67.45Z"/><path class="cls-1" d="m109.499,317.306c-13.161,0-25.537-5.126-34.833-14.434l-60.23-60.231C4.459,232.682-.714,219.186.083,204.969c.71-12.681,6.815-24.464,15.801-33.444l58.787-58.781c9.965-9.971,23.467-15.144,37.684-14.347,12.675.71,24.446,6.815,33.426,15.796l58.165,58.165c19.584,19.578,19.584,51.327,0,70.911l-59.614,59.614c-9.296,9.303-21.666,14.429-34.828,14.429l-.006-.006Zm-37.197-100.495l28.2,28.2c4.968,4.968,13.027,4.968,17.995,0l28.2-28.2c4.968-4.968,4.968-13.027,0-17.995l-28.2-28.2c-4.968-4.968-13.027-4.968-17.995,0l-28.2,28.2c-4.968,4.968-4.968,13.027,0,17.995Z"/><path class="cls-1" d="m400.098,405.969c-13.161,0-25.537-5.126-34.833-14.435l-60.23-60.23c-9.977-9.965-15.15-23.461-14.353-37.678.71-12.681,6.816-24.464,15.801-33.444l58.788-58.781c9.965-9.971,23.467-15.144,37.684-14.346,12.675.709,24.446,6.815,33.426,15.795l58.165,58.165c19.584,19.578,19.584,51.327,0,70.911l-59.614,59.614c-9.296,9.303-21.666,14.429-34.828,14.429h-.006Zm-37.197-100.495l28.2,28.2c4.968,4.968,13.027,4.968,17.995,0l28.2-28.2c4.968-4.968,4.968-13.027,0-17.995l-28.2-28.2c-4.968-4.968-13.027-4.968-17.995,0l-28.2,28.2c-4.968,4.968-4.968,13.027,0,17.995Z"/></svg>