<svg width="24" height="25" viewBox="0 0 24 25" fill="none" xmlns="http://www.w3.org/2000/svg">
    <path d="M11.5 16.6973H12.5V11.1973H11.5V16.6973ZM12 9.77427C12.1743 9.77427 12.3205 9.71527 12.4385 9.59727C12.5565 9.47927 12.6155 9.3331 12.6155 9.15877C12.6155 8.98443 12.5565 8.83827 12.4385 8.72027C12.3205 8.60243 12.1743 8.54352 12 8.54352C11.8257 8.54352 11.6795 8.60243 11.5615 8.72027C11.4435 8.83827 11.3845 8.98443 11.3845 9.15877C11.3845 9.3331 11.4435 9.47927 11.5615 9.59727C11.6795 9.71527 11.8257 9.77427 12 9.77427ZM12.0033 21.1973C10.7588 21.1973 9.58867 20.9611 8.493 20.4888C7.3975 20.0164 6.4445 19.3754 5.634 18.5658C4.8235 17.7561 4.18192 16.8039 3.70925 15.7093C3.23642 14.6148 3 13.4452 3 12.2005C3 10.956 3.23617 9.78593 3.7085 8.69027C4.18083 7.59477 4.82183 6.64177 5.6315 5.83127C6.44117 5.02077 7.39333 4.37918 8.488 3.90652C9.5825 3.43368 10.7521 3.19727 11.9967 3.19727C13.2413 3.19727 14.4113 3.43343 15.507 3.90577C16.6025 4.3781 17.5555 5.0191 18.366 5.82877C19.1765 6.63843 19.8181 7.5906 20.2908 8.68527C20.7636 9.77977 21 10.9493 21 12.194C21 13.4385 20.7638 14.6086 20.2915 15.7043C19.8192 16.7998 19.1782 17.7528 18.3685 18.5633C17.5588 19.3738 16.6067 20.0153 15.512 20.488C14.4175 20.9608 13.2479 21.1973 12.0033 21.1973ZM12 20.1973C14.2333 20.1973 16.125 19.4223 17.675 17.8723C19.225 16.3223 20 14.4306 20 12.1973C20 9.96393 19.225 8.07227 17.675 6.52227C16.125 4.97227 14.2333 4.19727 12 4.19727C9.76667 4.19727 7.875 4.97227 6.325 6.52227C4.775 8.07227 4 9.96393 4 12.1973C4 14.4306 4.775 16.3223 6.325 17.8723C7.875 19.4223 9.76667 20.1973 12 20.1973Z" fill="#7B4B03"/>
</svg>
