<?xml version="1.0" encoding="utf-8"?>
<!-- Uploaded to: SVG Repo, www.svgrepo.com, Generator: SVG Repo Mixer Tools -->
<svg fill="#000000" width="800px" height="800px" viewBox="-7 0 32 32" version="1.1" xmlns="http://www.w3.org/2000/svg">
<title>plug</title>
<path d="M17.4 11c-0.32-0.32-0.84-0.32-1.16 0l-3.36 3.36-2.4-2.4 3.36-3.36c0.32-0.32 0.32-0.84 0-1.16s-0.84-0.32-1.16 0l-3.36 3.36-1.6-1.6c-0.32-0.32-0.88-0.32-1.16 0l-3.040 3.040c-1.2 1.2-1.88 2.84-1.88 4.56 0 1.44 0.48 2.8 1.32 3.92l-2.72 2.72c-0.32 0.32-0.32 0.84 0 1.16 0.16 0.12 0.36 0.2 0.6 0.2s0.44-0.080 0.6-0.24l2.72-2.72c1.12 0.88 2.48 1.32 3.92 1.32 1.72 0 3.32-0.68 4.56-1.88l3.040-3.040c0.16-0.16 0.24-0.36 0.24-0.6 0-0.2-0.080-0.44-0.24-0.6l-1.56-1.56 3.36-3.36c0.24-0.28 0.24-0.8-0.080-1.12zM11.44 20.12v0c-0.92 0.92-2.080 1.4-3.36 1.4s-2.48-0.48-3.36-1.4c-0.92-0.88-1.4-2.080-1.4-3.36s0.48-2.48 1.4-3.36l2.44-2.44 6.72 6.72-2.44 2.44z"></path>
</svg>